<?xml version="1.0" encoding="UTF-8" standalone="no"?>
<svg
   id="visual"
   viewBox="0 0 900 150"
   width="900"
   height="150"
   version="1.1"
   sodipodi:docname="projetos-sobre.svg"
   inkscape:version="1.1 (c68e22c387, 2021-05-23)"
   xmlns:inkscape="http://www.inkscape.org/namespaces/inkscape"
   xmlns:sodipodi="http://sodipodi.sourceforge.net/DTD/sodipodi-0.dtd"
   xmlns="http://www.w3.org/2000/svg"
   xmlns:svg="http://www.w3.org/2000/svg">
  <defs
     id="defs25" />
  <sodipodi:namedview
     id="namedview23"
     pagecolor="#ffffff"
     bordercolor="#999999"
     borderopacity="1"
     inkscape:pageshadow="0"
     inkscape:pageopacity="0"
     inkscape:pagecheckerboard="0"
     showgrid="false"
     height="150px"
     inkscape:zoom="0.82777778"
     inkscape:cx="289.93289"
     inkscape:cy="115.36913"
     inkscape:window-width="1280"
     inkscape:window-height="961"
     inkscape:window-x="-8"
     inkscape:window-y="-8"
     inkscape:window-maximized="1"
     inkscape:current-layer="visual" />
  <g
     id="g852"
     transform="matrix(1,0,0,0.65144815,0,-436.95479)"
     style="stroke-width:1.23897">
    <path
       d="m 0,703 21.5,-0.5 C 43,702 86,701 128.8,700.3 c 42.9,-0.6 85.5,-1 128.4,-7.3 42.8,-6.3 85.8,-18.7 128.6,-20.8 42.9,-2.2 85.5,5.8 128.4,5.8 42.8,0 85.8,-8 128.6,-7.2 42.9,0.9 85.5,10.5 128.4,13.7 42.8,3.2 85.8,-0.2 107.3,-1.8 L 900,681 v 220 h -21.5 c -21.5,0 -64.5,0 -107.3,0 -42.9,0 -85.5,0 -128.4,0 -42.8,0 -85.8,0 -128.6,0 -42.9,0 -85.5,0 -128.4,0 -42.8,0 -85.8,0 -128.6,0 -42.9,0 -85.5,0 -128.4,0 C 86,901 43,901 21.5,901 H 0 Z"
       fill="none"
       id="path2"
       style="stroke-width:1.56508" />
    <path
       d="m 0,733 21.5,-6.3 c 21.5,-6.4 64.5,-19 107.3,-25 42.9,-6 85.5,-5.4 128.4,-6.4 42.8,-1 85.8,-3.6 128.6,-6 42.9,-2.3 85.5,-4.3 128.4,-0.3 42.8,4 85.8,14 128.6,21.8 42.9,7.9 85.5,13.5 128.4,13.7 42.8,0.2 85.8,-5.2 107.3,-7.8 L 900,714 v 187 h -21.5 c -21.5,0 -64.5,0 -107.3,0 -42.9,0 -85.5,0 -128.4,0 -42.8,0 -85.8,0 -128.6,0 -42.9,0 -85.5,0 -128.4,0 -42.8,0 -85.8,0 -128.6,0 -42.9,0 -85.5,0 -128.4,0 C 86,901 43,901 21.5,901 H 0 Z"
       fill="#dbc1ff"
       id="path4"
       style="stroke-width:1.56508" />
    <path
       d="m 0,725 21.5,2.7 c 21.5,2.6 64.5,8 107.3,7.8 42.9,-0.2 85.5,-5.8 128.4,-6.8 42.8,-1 85.8,2.6 128.6,3.5 42.9,0.8 85.5,-1.2 128.4,1.3 42.8,2.5 85.8,9.5 128.6,10.8 42.9,1.4 85.5,-3 128.4,-8.6 C 814,730 857,723 878.5,719.5 L 900,716 v 185 h -21.5 c -21.5,0 -64.5,0 -107.3,0 -42.9,0 -85.5,0 -128.4,0 -42.8,0 -85.8,0 -128.6,0 -42.9,0 -85.5,0 -128.4,0 -42.8,0 -85.8,0 -128.6,0 -42.9,0 -85.5,0 -128.4,0 C 86,901 43,901 21.5,901 H 0 Z"
       fill="#b084fc"
       id="path6"
       style="stroke-width:1.56508" />
    <path
       d="m 0,735 21.5,-1 c 21.5,-1 64.5,-3 107.3,-3.5 42.9,-0.5 85.5,0.5 128.4,5.2 42.8,4.6 85.8,13 128.6,17 42.9,4 85.5,3.6 128.4,3.6 42.8,0 85.8,0.4 128.6,-0.6 42.9,-1 85.5,-3.4 128.4,-3 42.8,0.3 85.8,3.3 107.3,4.8 L 900,759 v 142 h -21.5 c -21.5,0 -64.5,0 -107.3,0 -42.9,0 -85.5,0 -128.4,0 -42.8,0 -85.8,0 -128.6,0 -42.9,0 -85.5,0 -128.4,0 -42.8,0 -85.8,0 -128.6,0 -42.9,0 -85.5,0 -128.4,0 C 86,901 43,901 21.5,901 H 0 Z"
       fill="#7946f9"
       id="path8"
       style="stroke-width:1.56508" />
    <path
       d="m 0,786 21.5,-3.7 C 43,778.7 86,771.3 128.8,765.2 171.7,759 214.3,754 257.2,753 c 42.8,-1 85.8,2 128.6,5.7 42.9,3.6 85.5,8 128.4,12.8 42.8,4.8 85.8,10.2 128.6,12.7 42.9,2.5 85.5,2.1 128.4,-0.7 42.8,-2.8 85.8,-8.2 107.3,-10.8 L 900,770 v 131 h -21.5 c -21.5,0 -64.5,0 -107.3,0 -42.9,0 -85.5,0 -128.4,0 -42.8,0 -85.8,0 -128.6,0 -42.9,0 -85.5,0 -128.4,0 -42.8,0 -85.8,0 -128.6,0 -42.9,0 -85.5,0 -128.4,0 C 86,901 43,901 21.5,901 H 0 Z"
       fill="#4717f6"
       id="path10"
       style="stroke-width:1.56508" />
    <path
       d="m 0,777 21.5,5.3 c 21.5,5.4 64.5,16 107.3,19.4 42.9,3.3 85.5,-0.7 128.4,-4.2 42.8,-3.5 85.8,-6.5 128.6,-6.2 42.9,0.4 85.5,4 128.4,2.7 42.8,-1.3 85.8,-7.7 128.6,-6.3 42.9,1.3 85.5,10.3 128.4,13 42.8,2.6 85.8,-1 107.3,-2.9 L 900,796 v 105 h -21.5 c -21.5,0 -64.5,0 -107.3,0 -42.9,0 -85.5,0 -128.4,0 -42.8,0 -85.8,0 -128.6,0 -42.9,0 -85.5,0 -128.4,0 -42.8,0 -85.8,0 -128.6,0 -42.9,0 -85.5,0 -128.4,0 C 86,901 43,901 21.5,901 H 0 Z"
       fill="#4717f6"
       id="path12"
       style="stroke-width:1.56508" />
    <path
       d="m 0,823 21.5,-2.3 c 21.5,-2.4 64.5,-7 107.3,-10 42.9,-3 85.5,-4.4 128.4,-6.5 42.8,-2.2 85.8,-5.2 128.6,-6.9 42.9,-1.6 85.5,-2 128.4,-0.8 42.8,1.2 85.8,3.8 128.6,7.2 42.9,3.3 85.5,7.3 128.4,10 42.8,2.6 85.8,4 107.3,4.6 L 900,819 v 82 h -21.5 c -21.5,0 -64.5,0 -107.3,0 -42.9,0 -85.5,0 -128.4,0 -42.8,0 -85.8,0 -128.6,0 -42.9,0 -85.5,0 -128.4,0 -42.8,0 -85.8,0 -128.6,0 -42.9,0 -85.5,0 -128.4,0 C 86,901 43,901 21.5,901 H 0 Z"
       fill="#7946f9"
       id="path14"
       style="stroke-width:1.56508" />
    <path
       d="m 0,834 21.5,-2.7 c 21.5,-2.6 64.5,-8 107.3,-10.1 42.9,-2.2 85.5,-1.2 128.4,1.5 42.8,2.6 85.8,7 128.6,8.8 42.9,1.8 85.5,1.2 128.4,2.7 42.8,1.5 85.8,5.1 128.6,2.8 42.9,-2.3 85.5,-10.7 128.4,-11 42.8,-0.3 85.8,7.3 107.3,11.2 L 900,841 v 60 h -21.5 c -21.5,0 -64.5,0 -107.3,0 -42.9,0 -85.5,0 -128.4,0 -42.8,0 -85.8,0 -128.6,0 -42.9,0 -85.5,0 -128.4,0 -42.8,0 -85.8,0 -128.6,0 -42.9,0 -85.5,0 -128.4,0 C 86,901 43,901 21.5,901 H 0 Z"
       fill="#b084fc"
       id="path16"
       style="stroke-width:1.56508" />
    <path
       d="m 0,863 21.5,-2.8 c 21.5,-2.9 64.5,-8.5 107.3,-11 42.9,-2.5 85.5,-1.9 128.4,-1.7 42.8,0.2 85.8,-0.2 128.6,-0.7 42.9,-0.5 85.5,-1.1 128.4,-0.3 42.8,0.8 85.8,3.2 128.6,4.8 42.9,1.7 85.5,2.7 128.4,1.5 42.8,-1.1 85.8,-4.5 107.3,-6.1 L 900,845 v 56 h -21.5 c -21.5,0 -64.5,0 -107.3,0 -42.9,0 -85.5,0 -128.4,0 -42.8,0 -85.8,0 -128.6,0 -42.9,0 -85.5,0 -128.4,0 -42.8,0 -85.8,0 -128.6,0 -42.9,0 -85.5,0 -128.4,0 C 86,901 43,901 21.5,901 H 0 Z"
       fill="#dbc1ff"
       id="path18"
       style="stroke-width:1.56508" />
    <path
       d="m 0,886 21.5,-3.2 C 43,879.7 86,873.3 128.8,870 c 42.9,-3.3 85.5,-3.7 128.4,-1.8 42.8,1.8 85.8,5.8 128.6,8.8 42.9,3 85.5,5 128.4,5.8 42.8,0.9 85.8,0.5 128.6,-1.8 42.9,-2.3 85.5,-6.7 128.4,-7 42.8,-0.3 85.8,3.3 107.3,5.2 L 900,881 v 20 h -21.5 c -21.5,0 -64.5,0 -107.3,0 -42.9,0 -85.5,0 -128.4,0 -42.8,0 -85.8,0 -128.6,0 -42.9,0 -85.5,0 -128.4,0 -42.8,0 -85.8,0 -128.6,0 -42.9,0 -85.5,0 -128.4,0 C 86,901 43,901 21.5,901 H 0 Z"
       fill="#ffffff"
       id="path20"
       style="stroke-width:1.56508" />
  </g>
</svg>
