<?xml version="1.0" encoding="UTF-8" standalone="no"?><svg width="75" height="90" viewBox="0 0 19.84375 23.8125" version="1.1" id="svg5" inkscape:version="1.1 (c68e22c387, 2021-05-23)" sodipodi:docname="lg.svg" xmlns:inkscape="http://www.inkscape.org/namespaces/inkscape" xmlns:sodipodi="http://sodipodi.sourceforge.net/DTD/sodipodi-0.dtd" xmlns="http://www.w3.org/2000/svg" xmlns:svg="http://www.w3.org/2000/svg"><sodipodi:namedview id="namedview7" pagecolor="#c2c2c2" bordercolor="#999999" borderopacity="1" inkscape:pageshadow="0" inkscape:pageopacity="0" inkscape:pagecheckerboard="0" inkscape:document-units="px" showgrid="false" inkscape:snap-smooth-nodes="false" inkscape:object-paths="true" inkscape:snap-nodes="false" inkscape:object-nodes="true" showborder="true" borderlayer="false" fit-margin-top="5" fit-margin-left="5" fit-margin-right="5" fit-margin-bottom="5" inkscape:zoom="7.4333333" inkscape:cx="38.878924" inkscape:cy="45" inkscape:window-width="1280" inkscape:window-height="961" inkscape:window-x="-8" inkscape:window-y="-8" inkscape:window-maximized="1" inkscape:current-layer="layer1" height="90px" width="75px" /><defs id="defs2" /><g inkscape:label="Camada 1" inkscape:groupmode="layer" id="layer1"><g id="g3400" style="fill:#4717f6;fill-opacity:1;stroke:#ffffff;stroke-width:1.007;stroke-opacity:1" transform="matrix(0.99303718,0,0,0.99305531,-24.231412,26.630516)"><path d="m 43.088214,-15.029395 v -5.446385 c 0,-1.712401 -1.389358,-3.091835 -3.114076,-3.091835 h -7.904961 c -1.72472,0 -3.114076,1.379434 -3.114076,3.091835 v 7.610669 c 0,1.7124 1.389356,3.0918343 3.114076,3.0918343 h 8.431957 v 2.3783342 c 0,0.2854001 -0.239544,0.5232333 -0.526996,0.5232333 h -8.575684 v 2.568601 h 8.575684 c 1.724718,0 3.114076,-1.3794339 3.114076,-3.0918343 v -7.6106695 c 0,0 0,-0.02378 0,-0.02378 z m -11.019037,2.687517 c -0.287454,0 -0.526998,-0.237833 -0.526998,-0.523233 v -7.610669 c 0,-0.2854 0.239544,-0.523234 0.526998,-0.523234 h 7.904961 c 0.287452,0 0.526996,0.237834 0.526996,0.523234 v 7.610669 c 0,0.2854 -0.239544,0.523233 -0.526996,0.523233 z" style="font-size:10.5833px;line-height:1.25;font-family:Orbitron;-inkscape-font-specification:Orbitron;fill:#4717f6;fill-opacity:1;stroke:#ffffff;stroke-width:0.266436;stroke-linecap:round;stroke-linejoin:round;stroke-miterlimit:4;stroke-dasharray:none;stroke-opacity:1;paint-order:normal" id="path1922" /><path d="m 25.697301,-17.740696 c 0,0 0,0 0,0 v 7.610669 c 0,1.7124017 1.389356,3.0918347 3.114073,3.0918347 h 2.58708 v -2.568601 h -2.58708 c -0.287452,0 -0.526996,-0.237833 -0.526996,-0.5232337 v -15.221338 h -2.587077 z" style="font-size:10.5833px;line-height:1.25;font-family:Orbitron;-inkscape-font-specification:Orbitron;fill:#4717f6;fill-opacity:1;stroke:#ffffff;stroke-width:0.266436;stroke-linecap:round;stroke-linejoin:round;stroke-miterlimit:4;stroke-dasharray:none;stroke-opacity:1;paint-order:normal" id="path1920" /></g></g></svg> 
