<?xml version="1.0" encoding="UTF-8" standalone="no"?>
<!-- Created with Inkscape (http://www.inkscape.org/) -->

<svg
   width="1280"
   height="640"
   viewBox="0 0 338.66667 169.33334"
   version="1.1"
   id="svg5"
   inkscape:version="1.1.2 (b8e25be833, 2022-02-05)"
   sodipodi:docname="readme_banner.svg"
   xmlns:inkscape="http://www.inkscape.org/namespaces/inkscape"
   xmlns:sodipodi="http://sodipodi.sourceforge.net/DTD/sodipodi-0.dtd"
   xmlns:xlink="http://www.w3.org/1999/xlink"
   xmlns="http://www.w3.org/2000/svg"
   xmlns:svg="http://www.w3.org/2000/svg">
  <sodipodi:namedview
     id="namedview7"
     pagecolor="#cdcdcd"
     bordercolor="#666666"
     borderopacity="1.0"
     inkscape:pageshadow="2"
     inkscape:pageopacity="0"
     inkscape:pagecheckerboard="0"
     inkscape:document-units="px"
     showgrid="false"
     units="px"
     inkscape:zoom="1.0140625"
     inkscape:cx="640"
     inkscape:cy="319.50693"
     inkscape:window-width="1920"
     inkscape:window-height="1057"
     inkscape:window-x="-8"
     inkscape:window-y="-8"
     inkscape:window-maximized="1"
     inkscape:current-layer="layer1"
     inkscape:snap-object-midpoints="true"
     inkscape:snap-midpoints="true"
     inkscape:snap-intersection-paths="true"
     inkscape:object-paths="true" />
  <defs
     id="defs2">
    <linearGradient
       inkscape:collect="always"
       id="linearGradient1628">
      <stop
         style="stop-color:#4717f6;stop-opacity:1;"
         offset="0"
         id="stop1624" />
      <stop
         style="stop-color:#8776da;stop-opacity:1"
         offset="1"
         id="stop1626" />
    </linearGradient>
    <linearGradient
       inkscape:collect="always"
       xlink:href="#linearGradient1628"
       id="linearGradient1630"
       x1="59.783184"
       y1="49.7459"
       x2="203.29311"
       y2="49.7459"
       gradientUnits="userSpaceOnUse"
       gradientTransform="translate(37.795196)" />
  </defs>
  <g
     inkscape:label="Camada 1"
     inkscape:groupmode="layer"
     id="layer1">
    <rect
       style="fill:#ffffff;fill-opacity:1;stroke-width:0.875421"
       id="rect4076"
       width="338.66669"
       height="169.33334"
       x="-1.7763568e-15"
       y="-1.7763568e-15" />
    <g
       aria-label="Lucas Gonc"
       id="text1904"
       style="font-size:25.4px;line-height:1.25;font-family:'Helvetica Neue LT W06';-inkscape-font-specification:'Helvetica Neue LT W06';fill:url(#linearGradient1630);stroke-width:0.264583">
      <path
         d="M 97.578377,40.830501 V 58.6105 h 10.693403 v -2.7178 h -7.6962 V 40.830501 Z"
         style="font-family:'Montserrat Alternates';-inkscape-font-specification:'Montserrat Alternates'"
         id="path849" />
      <path
         d="M 120.31139,45.097701 V 51.7525 c 0,2.3622 -1.3716,4.1656 -3.7084,4.2164 -1.9558,0 -3.1496,-1.2446 -3.1496,-3.2766 v -7.594599 h -2.921 V 53.5051 c 0,3.2258 1.8542,5.207 4.953,5.207 2.2098,-0.0254 3.9116,-0.8636 4.826,-2.7432 v 2.6416 h 2.921 V 45.097701 Z"
         style="font-family:'Montserrat Alternates';-inkscape-font-specification:'Montserrat Alternates'"
         id="path851" />
      <path
         d="m 137.07538,49.0855 1.6002,-1.879599 c -1.2446,-1.4224 -3.1496,-2.2098 -5.588,-2.2098 -4.0132,0 -6.8072,2.793999 -6.8072,6.883399 0,4.064 2.794,6.8326 6.8072,6.8326 2.5654,0 4.5212,-0.9144 5.7404,-2.5146 l -1.6256,-1.6256 c -0.9144,1.0668 -2.286,1.6256 -3.9878,1.6256 -2.3368,0 -4.0132,-1.7526 -4.0132,-4.318 0,-2.5654 1.6764,-4.317999 4.0132,-4.317999 1.6256,-0.0254 2.921,0.558799 3.8608,1.523999 z"
         style="font-family:'Montserrat Alternates';-inkscape-font-specification:'Montserrat Alternates'"
         id="path853" />
      <path
         d="m 151.27396,45.097701 v 2.286 c -0.9906,-1.5748 -2.6416,-2.4384 -4.826,-2.413 -3.81,0.0254 -6.3754,2.793999 -6.3754,6.832599 0,4.1148 2.5908,6.9342 6.477,6.9342 2.1336,0 3.7338,-0.8636 4.7244,-2.413 v 2.286 h 2.8956 V 45.097701 Z m -4.1148,11.201399 c -2.4638,0 -4.1402,-1.8288 -4.1656,-4.3942 0.0254,-2.5908 1.7272,-4.444999 4.1656,-4.444999 2.286,0 3.8862,1.600199 4.1148,3.936999 v 0.9906 c -0.2286,2.3114 -1.8288,3.9116 -4.1148,3.9116 z"
         style="font-family:'Montserrat Alternates';-inkscape-font-specification:'Montserrat Alternates'"
         id="path855" />
      <path
         d="m 166.18374,48.5013 1.0668,-2.158999 c -1.2192,-0.8636 -3.0226,-1.3716 -4.7244,-1.3716 -2.5908,0 -4.9784,1.1684 -4.9784,3.911599 -0.0254,4.8768 7.0866,3.3274 7.0866,6.096 0,1.016 -0.9652,1.4478 -2.2098,1.4478 -1.4732,0 -3.3528,-0.635 -4.5212,-1.6764 l -1.0414,2.0828 c 1.3462,1.2192 3.4544,1.8796 5.4356,1.8796 2.7178,0 5.1816,-1.2446 5.1816,-4.0132 0.0254,-4.9022 -7.1628,-3.556 -7.1628,-6.0452 0,-0.9652 0.8382,-1.346199 1.9812,-1.346199 1.1938,0 2.6924,0.457199 3.8862,1.193799 z"
         style="font-family:'Montserrat Alternates';-inkscape-font-specification:'Montserrat Alternates'"
         id="path857" />
      <path
         d="m 190.3899,54.1655 c -1.0668,1.1684 -2.6162,1.8796 -4.2672,1.8796 -3.53059,0 -6.32459,-2.7686 -6.32459,-6.3246 0,-3.530599 2.8702,-6.299199 6.47699,-6.299199 1.8796,0 3.7592,0.762 5.1308,2.032 l 1.7272,-2.2098 c -1.778,-1.524 -4.3434,-2.4892 -6.8834,-2.4892 -5.35939,0 -9.49959,3.8862 -9.49959,8.966199 0,5.08 3.9624,9.017 9.06779,9.017 1.7526,0 3.5306,-0.6858 4.9276,-1.8034 v 1.6764 h 2.2606 v -9.0424 h -2.6162 z"
         style="font-family:'Montserrat Alternates';-inkscape-font-specification:'Montserrat Alternates'"
         id="path859" />
      <path
         d="m 202.88671,44.996101 c -4.191,0 -7.0612,2.768599 -7.0612,6.832599 0,4.0894 2.8702,6.8834 7.0612,6.8834 4.1656,0 7.0358,-2.794 7.0358,-6.8834 0,-4.064 -2.8702,-6.832599 -7.0358,-6.832599 z m 0,2.4892 c 2.413,0 4.1148,1.803399 4.1148,4.394199 0,2.6162 -1.7018,4.3942 -4.1148,4.3942 -2.4384,0 -4.1402,-1.778 -4.1402,-4.3942 0,-2.5908 1.7018,-4.394199 4.1402,-4.394199 z"
         style="font-family:'Montserrat Alternates';-inkscape-font-specification:'Montserrat Alternates'"
         id="path861" />
      <path
         d="m 220.86991,44.996101 c -2.286,0 -4.0132,0.8128 -4.9784,2.692399 v -2.590799 h -2.921 V 58.6105 h 2.921 v -7.1882 c 0.2032,-2.1082 1.6002,-3.6576 3.8354,-3.683 2.032,0 3.2512,1.2446 3.2512,3.2766 v 7.5946 h 2.921 v -8.4074 c 0,-3.225799 -1.8796,-5.206999 -5.0292,-5.206999 z"
         style="font-family:'Montserrat Alternates';-inkscape-font-specification:'Montserrat Alternates'"
         id="path863" />
      <path
         d="m 239.3357,49.0855 1.6002,-1.879599 c -1.2446,-1.4224 -3.1496,-2.2098 -5.588,-2.2098 -4.0132,0 -6.8072,2.793999 -6.8072,6.883399 0,4.064 2.794,6.8326 6.8072,6.8326 2.5654,0 4.5212,-0.9144 5.7404,-2.5146 l -1.6256,-1.6256 c -0.9144,1.0668 -2.286,1.6256 -3.9878,1.6256 -2.3368,0 -4.0132,-1.7526 -4.0132,-4.318 0,-2.5654 1.6764,-4.317999 4.0132,-4.317999 1.6256,-0.0254 2.921,0.558799 3.8608,1.523999 z"
         style="font-family:'Montserrat Alternates';-inkscape-font-specification:'Montserrat Alternates'"
         id="path865" />
    </g>
    <g
       id="g5176"
       transform="matrix(0.44097223,0,0,0.44097223,-186.52715,-20.117174)" />
    <g
       id="g5178"
       transform="matrix(0.44097223,0,0,0.44097223,-186.52715,-20.117174)" />
    <g
       id="g5180"
       transform="matrix(0.44097223,0,0,0.44097223,-186.52715,-20.117174)" />
    <g
       id="g5182"
       transform="matrix(0.44097223,0,0,0.44097223,-186.52715,-20.117174)" />
    <g
       id="g5184"
       transform="matrix(0.44097223,0,0,0.44097223,-186.52715,-20.117174)" />
    <g
       id="g5186"
       transform="matrix(0.44097223,0,0,0.44097223,-186.52715,-20.117174)" />
    <g
       id="g5188"
       transform="matrix(0.44097223,0,0,0.44097223,-186.52715,-20.117174)" />
    <g
       id="g5190"
       transform="matrix(0.44097223,0,0,0.44097223,-186.52715,-20.117174)" />
    <g
       id="g5192"
       transform="matrix(0.44097223,0,0,0.44097223,-186.52715,-20.117174)" />
    <g
       id="g5194"
       transform="matrix(0.44097223,0,0,0.44097223,-186.52715,-20.117174)" />
    <g
       id="g5196"
       transform="matrix(0.44097223,0,0,0.44097223,-186.52715,-20.117174)" />
    <g
       id="g5198"
       transform="matrix(0.44097223,0,0,0.44097223,-186.52715,-20.117174)" />
    <g
       id="g5200"
       transform="matrix(0.44097223,0,0,0.44097223,-186.52715,-20.117174)" />
    <g
       id="g5202"
       transform="matrix(0.44097223,0,0,0.44097223,-186.52715,-20.117174)" />
    <g
       id="g5204"
       transform="matrix(0.44097223,0,0,0.44097223,-186.52715,-20.117174)" />
    <path
       style="fill:none;stroke:#4717f6;stroke-width:0.529166;stroke-linecap:round;stroke-linejoin:round;stroke-miterlimit:4;stroke-dasharray:none;stroke-opacity:1"
       d="M 37.335916,103.12819 H 301.33077"
       id="path8030" />
    <g
       aria-label="Personal Website and Portfolio"
       id="text10894"
       style="font-size:14.1111px;line-height:1.25;font-family:'Helvetica Neue LT W06';-inkscape-font-specification:'Helvetica Neue LT W06';fill:#8776da;stroke-width:0.264583">
      <path
         d="m 84.723213,89.450325 v -4.586108 h 3.654775 q 0.705555,0 1.28411,-0.169333 0.592666,-0.183444 1.015999,-0.52211 0.423333,-0.352778 0.663222,-0.860778 0.239888,-0.52211 0.239888,-1.185332 0,-1.368777 -0.804332,-2.060221 -0.804333,-0.691444 -2.257776,-0.691444 h -4.078108 v 10.075326 z m 0,-4.86833 v -4.924774 h 3.795886 q 1.41111,0 2.088443,0.635 0.691443,0.634999 0.691443,1.834443 0,0.592666 -0.211666,1.044221 -0.211667,0.451556 -0.592666,0.776111 -0.366889,0.310444 -0.874889,0.479777 -0.507999,0.155222 -1.100665,0.155222 z"
         style="font-family:'Helvetica Neue UltraLight';-inkscape-font-specification:'Helvetica Neue UltraLight, ';text-align:center;text-anchor:middle"
         id="path886" />
      <path
         d="m 92.413754,85.880217 h 6.067773 q 0.02822,-0.747889 -0.155222,-1.439333 -0.169333,-0.691443 -0.564444,-1.227665 -0.381,-0.536222 -1.001888,-0.860777 -0.606778,-0.324556 -1.453444,-0.324556 -0.606777,0 -1.185332,0.254 -0.578555,0.254 -1.015999,0.747888 -0.437444,0.479778 -0.705555,1.185333 -0.268111,0.705555 -0.268111,1.608665 0,0.804333 0.183444,1.509888 0.183444,0.691444 0.564444,1.213555 0.381,0.507999 0.973666,0.790221 0.606777,0.282222 1.453443,0.268111 1.241777,0 2.088443,-0.691444 0.846666,-0.705555 1.001888,-1.975554 h -0.282222 q -0.183444,1.199444 -0.945444,1.806221 -0.747888,0.592666 -1.890887,0.592666 -0.77611,0 -1.312332,-0.268111 -0.536222,-0.268111 -0.874888,-0.733777 -0.338667,-0.465666 -0.508,-1.086555 -0.155222,-0.634999 -0.169333,-1.368776 z m 5.785551,-0.282222 h -5.785551 q 0.04233,-0.762 0.282222,-1.368777 0.239888,-0.606777 0.620888,-1.03011 0.395111,-0.437444 0.903111,-0.663222 0.52211,-0.225778 1.114776,-0.225778 0.705555,0 1.241777,0.268111 0.536222,0.254 0.889,0.705555 0.366888,0.451555 0.550333,1.058333 0.183444,0.592666 0.183444,1.255888 z"
         style="font-family:'Helvetica Neue UltraLight';-inkscape-font-specification:'Helvetica Neue UltraLight, ';text-align:center;text-anchor:middle"
         id="path888" />
      <path
         d="m 99.892637,89.450325 v -4.10633 q 0,-0.592666 0.169333,-1.15711 0.16933,-0.564444 0.52211,-0.987777 0.35278,-0.437444 0.889,-0.677333 0.55033,-0.254 1.29822,-0.211667 v -0.282222 q -0.64911,-0.01411 -1.143,0.141111 -0.47977,0.155222 -0.83255,0.423333 -0.35278,0.268111 -0.56445,0.635 -0.21166,0.352777 -0.31044,0.761999 h -0.02822 V 82.19722 h -0.282222 v 7.253105 z"
         style="font-family:'Helvetica Neue UltraLight';-inkscape-font-specification:'Helvetica Neue UltraLight, ';text-align:center;text-anchor:middle"
         id="path890" />
      <path
         d="m 107.99242,84.342107 h 0.28222 q 0,-1.213555 -0.70555,-1.763888 -0.70556,-0.550333 -1.91911,-0.550333 -0.67734,0 -1.143,0.169334 -0.46567,0.169333 -0.762,0.437444 -0.29634,0.268111 -0.42334,0.592666 -0.127,0.324555 -0.127,0.620888 0,0.592666 0.21167,0.945444 0.21167,0.352777 0.66322,0.550333 0.31045,0.141111 0.70556,0.254 0.39511,0.112888 0.91722,0.239888 0.46567,0.112889 0.91722,0.225778 0.45156,0.112889 0.79022,0.310444 0.35278,0.183444 0.56445,0.479778 0.22577,0.296333 0.22577,0.77611 0,0.465666 -0.22577,0.790222 -0.21167,0.324555 -0.55034,0.536222 -0.33866,0.197555 -0.762,0.296333 -0.40922,0.08467 -0.80433,0.08467 -1.28411,0 -1.97555,-0.564444 -0.67734,-0.578555 -0.67734,-1.806221 h -0.28222 q 0,1.368777 0.73378,2.003777 0.74789,0.634999 2.20133,0.634999 0.46567,0 0.93133,-0.112889 0.47978,-0.09878 0.84667,-0.338666 0.381,-0.239889 0.60678,-0.620889 0.23989,-0.380999 0.23989,-0.931332 0,-0.522111 -0.21167,-0.846666 -0.19756,-0.324555 -0.53622,-0.536222 -0.32456,-0.211666 -0.74789,-0.324555 -0.40922,-0.127 -0.83256,-0.239889 -0.59266,-0.155222 -1.04422,-0.268111 -0.43744,-0.112889 -0.81844,-0.268111 -0.36689,-0.155222 -0.59267,-0.437444 -0.21166,-0.296333 -0.21166,-0.832555 0,-0.09878 0.0564,-0.352777 0.0564,-0.254 0.26811,-0.508 0.21167,-0.268111 0.64911,-0.465666 0.43745,-0.211667 1.19945,-0.211667 0.52211,0 0.94544,0.112889 0.43744,0.112889 0.74789,0.366889 0.31044,0.239888 0.47978,0.620888 0.16933,0.381 0.16933,0.931333 z"
         style="font-family:'Helvetica Neue UltraLight';-inkscape-font-specification:'Helvetica Neue UltraLight, ';text-align:center;text-anchor:middle"
         id="path892" />
      <path
         d="m 109.69985,85.823772 q 0,-0.677333 0.18345,-1.312332 0.19755,-0.635 0.57855,-1.114777 0.381,-0.493888 0.93133,-0.790222 0.56445,-0.296333 1.29823,-0.296333 0.71966,0 1.27,0.296333 0.56444,0.296334 0.94544,0.790222 0.381,0.479777 0.56444,1.114777 0.19756,0.634999 0.19756,1.312332 0,0.691444 -0.19756,1.326444 -0.18344,0.634999 -0.56444,1.128888 -0.381,0.479777 -0.94544,0.77611 -0.55034,0.282222 -1.27,0.282222 -0.73378,0 -1.29823,-0.282222 -0.55033,-0.296333 -0.93133,-0.77611 -0.381,-0.493889 -0.57855,-1.128888 -0.18345,-0.635 -0.18345,-1.326444 z m -0.28222,0 q 0,0.747889 0.21167,1.439332 0.21166,0.677333 0.62089,1.199444 0.42333,0.522111 1.03011,0.832555 0.60677,0.310444 1.397,0.310444 0.80433,0 1.41111,-0.310444 0.60677,-0.310444 1.01599,-0.832555 0.42334,-0.522111 0.635,-1.199444 0.21167,-0.691443 0.21167,-1.439332 0,-0.747888 -0.21167,-1.425221 -0.21166,-0.691444 -0.635,-1.213554 -0.40922,-0.522111 -1.01599,-0.832555 -0.60678,-0.324556 -1.397,-0.324556 -0.80434,0 -1.41111,0.324556 -0.60678,0.310444 -1.03011,0.832555 -0.40923,0.52211 -0.62089,1.213554 -0.21167,0.677333 -0.21167,1.425221 z"
         style="font-family:'Helvetica Neue UltraLight';-inkscape-font-specification:'Helvetica Neue UltraLight, ';text-align:center;text-anchor:middle"
         id="path894" />
      <path
         d="m 117.12228,82.19722 v 7.253105 h 0.28222 v -4.10633 q 0,-0.606777 0.16934,-1.15711 0.16933,-0.550333 0.49388,-0.959555 0.33867,-0.423333 0.83256,-0.663222 0.49389,-0.254 1.143,-0.254 0.46566,0 0.87489,0.141111 0.42333,0.127 0.73377,0.423333 0.32456,0.282222 0.508,0.733778 0.18345,0.437444 0.18345,1.072443 v 4.769552 h 0.28222 V 84.63844 q 0,-0.635 -0.19756,-1.114777 -0.18344,-0.493889 -0.53622,-0.818444 -0.33866,-0.338666 -0.81844,-0.507999 -0.46567,-0.169334 -1.03011,-0.169334 -0.53622,0 -0.97367,0.155222 -0.43744,0.141111 -0.77611,0.409222 -0.32455,0.268111 -0.55033,0.620889 -0.21167,0.352777 -0.31044,0.77611 h -0.0282 V 82.19722 Z"
         style="font-family:'Helvetica Neue UltraLight';-inkscape-font-specification:'Helvetica Neue UltraLight, ';text-align:center;text-anchor:middle"
         id="path896" />
      <path
         d="m 124.16372,84.440884 h 0.28222 q 0.0706,-1.015999 0.70556,-1.566332 0.635,-0.564444 1.778,-0.564444 0.71966,0 1.14299,0.197556 0.42334,0.183444 0.635,0.479777 0.22578,0.296333 0.28223,0.649111 0.0564,0.352777 0.0564,0.677333 0,0.409221 -0.16933,0.634999 -0.15523,0.211667 -0.508,0.324555 -0.33867,0.09878 -0.87489,0.141111 -0.53622,0.02822 -1.28411,0.07056 -0.45156,0.02822 -0.90311,0.127 -0.45156,0.08467 -0.80433,0.324555 -0.35278,0.225778 -0.57856,0.635 -0.21167,0.409221 -0.21167,1.086554 0,0.973666 0.66323,1.467555 0.66322,0.479777 1.76388,0.479777 0.56445,0 1.04422,-0.155222 0.47978,-0.141111 0.84667,-0.395111 0.381,-0.254 0.62089,-0.578555 0.254,-0.324555 0.36689,-0.677333 h 0.0282 v 0.945444 q 0,0.409222 0.22578,0.564444 0.23989,0.141111 0.55033,0.141111 h 0.42333 v -0.282222 q -0.14111,0.01411 -0.31044,0.02822 -0.15522,0 -0.29633,-0.02822 -0.14111,-0.04233 -0.22578,-0.141111 -0.0847,-0.09878 -0.0847,-0.310444 v -4.61433 q -0.0141,-0.592666 -0.21166,-0.987777 -0.19756,-0.395111 -0.52212,-0.634999 -0.32455,-0.254 -0.76199,-0.352778 -0.42334,-0.09878 -0.90311,-0.09878 -0.67734,0 -1.18534,0.183445 -0.49389,0.183444 -0.84666,0.507999 -0.33867,0.324556 -0.52211,0.776111 -0.18345,0.437444 -0.21167,0.945443 z m 4.88244,0.747889 v 1.340554 q 0,0.536222 -0.19756,1.044222 -0.18344,0.507999 -0.56444,0.90311 -0.36689,0.381 -0.91722,0.620889 -0.55033,0.239888 -1.25589,0.239888 -0.59266,0 -1.00189,-0.141111 -0.39511,-0.155222 -0.64911,-0.380999 -0.254,-0.239889 -0.36689,-0.536222 -0.0988,-0.310445 -0.0988,-0.620889 0,-0.578555 0.18344,-0.931332 0.18344,-0.366889 0.49389,-0.564444 0.31044,-0.211667 0.70555,-0.282222 0.40923,-0.08467 0.83256,-0.112889 0.42333,-0.02822 0.86078,-0.04233 0.45155,-0.01411 0.83255,-0.07056 0.381,-0.05644 0.67733,-0.155222 0.29634,-0.112889 0.43745,-0.310444 z"
         style="font-family:'Helvetica Neue UltraLight';-inkscape-font-specification:'Helvetica Neue UltraLight, ';text-align:center;text-anchor:middle"
         id="path898" />
      <path
         d="m 130.96528,79.374999 v 10.075326 h 0.28222 V 79.374999 Z"
         style="font-family:'Helvetica Neue UltraLight';-inkscape-font-specification:'Helvetica Neue UltraLight, ';text-align:center;text-anchor:middle"
         id="path900" />
      <path
         d="m 148.08203,79.374999 -2.80811,9.722549 h -0.0282 l -2.94922,-9.722549 h -0.40922 l -2.90689,9.722549 h -0.0282 l -2.85044,-9.722549 h -0.28222 l 2.96333,10.075326 h 0.381 l 2.90688,-9.722548 h 0.0282 l 2.96333,9.722548 h 0.381 l 2.92099,-10.075326 z"
         style="font-family:'Helvetica Neue UltraLight';-inkscape-font-specification:'Helvetica Neue UltraLight, ';text-align:center;text-anchor:middle"
         id="path902" />
      <path
         d="m 148.85816,85.880217 h 6.06777 q 0.0282,-0.747889 -0.15522,-1.439333 -0.16933,-0.691443 -0.56445,-1.227665 -0.381,-0.536222 -1.00188,-0.860777 -0.60678,-0.324556 -1.45345,-0.324556 -0.60677,0 -1.18533,0.254 -0.57855,0.254 -1.016,0.747888 -0.43744,0.479778 -0.70555,1.185333 -0.26811,0.705555 -0.26811,1.608665 0,0.804333 0.18344,1.509888 0.18344,0.691444 0.56444,1.213555 0.381,0.507999 0.97367,0.790221 0.60678,0.282222 1.45344,0.268111 1.24178,0 2.08845,-0.691444 0.84666,-0.705555 1.00188,-1.975554 h -0.28222 q -0.18344,1.199444 -0.94544,1.806221 -0.74789,0.592666 -1.89089,0.592666 -0.77611,0 -1.31233,-0.268111 -0.53622,-0.268111 -0.87489,-0.733777 -0.33867,-0.465666 -0.508,-1.086555 -0.15522,-0.634999 -0.16933,-1.368776 z m 5.78555,-0.282222 h -5.78555 q 0.0423,-0.762 0.28222,-1.368777 0.23989,-0.606777 0.62089,-1.03011 0.39511,-0.437444 0.90311,-0.663222 0.52211,-0.225778 1.11478,-0.225778 0.70555,0 1.24177,0.268111 0.53622,0.254 0.889,0.705555 0.36689,0.451555 0.55033,1.058333 0.18345,0.592666 0.18345,1.255888 z"
         style="font-family:'Helvetica Neue UltraLight';-inkscape-font-specification:'Helvetica Neue UltraLight, ';text-align:center;text-anchor:middle"
         id="path904" />
      <path
         d="m 156.33704,84.229218 v -4.854219 h -0.28222 v 10.075326 h 0.28222 v -2.031998 h 0.0282 q 0.28222,0.973665 1.03011,1.580443 0.762,0.606777 1.87678,0.606777 0.71966,0 1.28411,-0.282222 0.57855,-0.282222 0.97366,-0.77611 0.40923,-0.508 0.62089,-1.199444 0.21167,-0.691444 0.21167,-1.509888 0,-0.761999 -0.21167,-1.453443 -0.19755,-0.691444 -0.59266,-1.213555 -0.381,-0.52211 -0.95956,-0.832554 -0.57855,-0.310445 -1.32644,-0.310445 -1.15711,0 -1.905,0.606778 -0.74789,0.606777 -1.00189,1.594554 z m 0,1.608665 q 0,-1.707443 0.80433,-2.610553 0.80434,-0.917222 2.13078,-0.917222 0.74789,0 1.27,0.324556 0.53622,0.310444 0.87489,0.818443 0.33866,0.493889 0.49388,1.128888 0.16934,0.620889 0.16934,1.255888 0,0.691444 -0.18345,1.326444 -0.16933,0.634999 -0.52211,1.128888 -0.33866,0.479777 -0.87489,0.761999 -0.52211,0.282222 -1.22766,0.282222 -0.69145,0 -1.24178,-0.282222 -0.55033,-0.282222 -0.93133,-0.761999 -0.36689,-0.479778 -0.56444,-1.114777 -0.19756,-0.635 -0.19756,-1.340555 z"
         style="font-family:'Helvetica Neue UltraLight';-inkscape-font-specification:'Helvetica Neue UltraLight, ';text-align:center;text-anchor:middle"
         id="path906" />
      <path
         d="m 168.3597,84.342107 h 0.28223 q 0,-1.213555 -0.70556,-1.763888 -0.70555,-0.550333 -1.91911,-0.550333 -0.67733,0 -1.143,0.169334 -0.46566,0.169333 -0.762,0.437444 -0.29633,0.268111 -0.42333,0.592666 -0.127,0.324555 -0.127,0.620888 0,0.592666 0.21167,0.945444 0.21166,0.352777 0.66322,0.550333 0.31044,0.141111 0.70555,0.254 0.39511,0.112888 0.91722,0.239888 0.46567,0.112889 0.91723,0.225778 0.45155,0.112889 0.79022,0.310444 0.35278,0.183444 0.56444,0.479778 0.22578,0.296333 0.22578,0.77611 0,0.465666 -0.22578,0.790222 -0.21166,0.324555 -0.55033,0.536222 -0.33867,0.197555 -0.762,0.296333 -0.40922,0.08467 -0.80433,0.08467 -1.28411,0 -1.97556,-0.564444 -0.67733,-0.578555 -0.67733,-1.806221 h -0.28222 q 0,1.368777 0.73377,2.003777 0.74789,0.634999 2.20134,0.634999 0.46566,0 0.93133,-0.112889 0.47978,-0.09878 0.84667,-0.338666 0.38099,-0.239889 0.60677,-0.620889 0.23989,-0.380999 0.23989,-0.931332 0,-0.522111 -0.21167,-0.846666 -0.19755,-0.324555 -0.53622,-0.536222 -0.32455,-0.211666 -0.74789,-0.324555 -0.40922,-0.127 -0.83255,-0.239889 -0.59267,-0.155222 -1.04422,-0.268111 -0.43745,-0.112889 -0.81845,-0.268111 -0.36688,-0.155222 -0.59266,-0.437444 -0.21167,-0.296333 -0.21167,-0.832555 0,-0.09878 0.0564,-0.352777 0.0564,-0.254 0.26811,-0.508 0.21166,-0.268111 0.64911,-0.465666 0.43744,-0.211667 1.19944,-0.211667 0.52211,0 0.94544,0.112889 0.43745,0.112889 0.74789,0.366889 0.31045,0.239888 0.47978,0.620888 0.16933,0.381 0.16933,0.931333 z"
         style="font-family:'Helvetica Neue UltraLight';-inkscape-font-specification:'Helvetica Neue UltraLight, ';text-align:center;text-anchor:middle"
         id="path908" />
      <path
         d="m 170.44814,80.800221 v -1.425222 h -0.28222 v 1.425222 z m 0,8.650104 V 82.19722 h -0.28222 v 7.253105 z"
         style="font-family:'Helvetica Neue UltraLight';-inkscape-font-specification:'Helvetica Neue UltraLight, ';text-align:center;text-anchor:middle"
         id="path910" />
      <path
         d="m 172.77645,82.479442 h 1.63689 V 82.19722 h -1.63689 v -2.285999 h -0.28222 v 2.285999 h -1.32644 v 0.282222 h 1.32644 v 5.616217 q 0,0.776111 0.33867,1.072444 0.35278,0.282222 0.84667,0.282222 0.32455,0 0.43744,-0.01411 0.127,-0.01411 0.254,-0.02822 V 89.12577 q -0.0706,0.02822 -0.23989,0.04233 -0.16933,0 -0.381,0 -0.16933,0 -0.33867,-0.01411 -0.16933,-0.02822 -0.31044,-0.141111 -0.14111,-0.112889 -0.23989,-0.338666 -0.0847,-0.225778 -0.0847,-0.635 z"
         style="font-family:'Helvetica Neue UltraLight';-inkscape-font-specification:'Helvetica Neue UltraLight, ';text-align:center;text-anchor:middle"
         id="path912" />
      <path
         d="m 175.26,85.880217 h 6.06777 q 0.0282,-0.747889 -0.15522,-1.439333 -0.16933,-0.691443 -0.56445,-1.227665 -0.381,-0.536222 -1.00188,-0.860777 -0.60678,-0.324556 -1.45345,-0.324556 -0.60677,0 -1.18533,0.254 -0.57855,0.254 -1.016,0.747888 -0.43744,0.479778 -0.70555,1.185333 -0.26811,0.705555 -0.26811,1.608665 0,0.804333 0.18344,1.509888 0.18344,0.691444 0.56444,1.213555 0.381,0.507999 0.97367,0.790221 0.60678,0.282222 1.45344,0.268111 1.24178,0 2.08845,-0.691444 0.84666,-0.705555 1.00188,-1.975554 h -0.28222 q -0.18344,1.199444 -0.94544,1.806221 -0.74789,0.592666 -1.89089,0.592666 -0.77611,0 -1.31233,-0.268111 -0.53622,-0.268111 -0.87489,-0.733777 -0.33867,-0.465666 -0.508,-1.086555 -0.15522,-0.634999 -0.16933,-1.368776 z m 5.78555,-0.282222 H 175.26 q 0.0423,-0.762 0.28222,-1.368777 0.23989,-0.606777 0.62089,-1.03011 0.39511,-0.437444 0.90311,-0.663222 0.52211,-0.225778 1.11478,-0.225778 0.70555,0 1.24177,0.268111 0.53622,0.254 0.889,0.705555 0.36689,0.451555 0.55033,1.058333 0.18345,0.592666 0.18345,1.255888 z"
         style="font-family:'Helvetica Neue UltraLight';-inkscape-font-specification:'Helvetica Neue UltraLight, ';text-align:center;text-anchor:middle"
         id="path914" />
      <path
         d="m 186.36544,84.440884 h 0.28222 q 0.0705,-1.015999 0.70555,-1.566332 0.635,-0.564444 1.778,-0.564444 0.71967,0 1.143,0.197556 0.42333,0.183444 0.635,0.479777 0.22578,0.296333 0.28222,0.649111 0.0565,0.352777 0.0565,0.677333 0,0.409221 -0.16934,0.634999 -0.15522,0.211667 -0.508,0.324555 -0.33866,0.09878 -0.87488,0.141111 -0.53623,0.02822 -1.28411,0.07056 -0.45156,0.02822 -0.90311,0.127 -0.45156,0.08467 -0.80434,0.324555 -0.35277,0.225778 -0.57855,0.635 -0.21167,0.409221 -0.21167,1.086554 0,0.973666 0.66322,1.467555 0.66323,0.479777 1.76389,0.479777 0.56444,0 1.04422,-0.155222 0.47978,-0.141111 0.84667,-0.395111 0.381,-0.254 0.62089,-0.578555 0.254,-0.324555 0.36689,-0.677333 h 0.0282 v 0.945444 q 0,0.409222 0.22578,0.564444 0.23988,0.141111 0.55033,0.141111 h 0.42333 v -0.282222 q -0.14111,0.01411 -0.31044,0.02822 -0.15523,0 -0.29634,-0.02822 -0.14111,-0.04233 -0.22577,-0.141111 -0.0847,-0.09878 -0.0847,-0.310444 v -4.61433 q -0.0141,-0.592666 -0.21167,-0.987777 -0.19755,-0.395111 -0.52211,-0.634999 -0.32455,-0.254 -0.762,-0.352778 -0.42333,-0.09878 -0.90311,-0.09878 -0.67733,0 -1.18533,0.183445 -0.49389,0.183444 -0.84667,0.507999 -0.33866,0.324556 -0.52211,0.776111 -0.18344,0.437444 -0.21166,0.945443 z m 4.88244,0.747889 v 1.340554 q 0,0.536222 -0.19756,1.044222 -0.18344,0.507999 -0.56444,0.90311 -0.36689,0.381 -0.91722,0.620889 -0.55034,0.239888 -1.25589,0.239888 -0.59267,0 -1.00189,-0.141111 -0.39511,-0.155222 -0.64911,-0.380999 -0.254,-0.239889 -0.36689,-0.536222 -0.0988,-0.310445 -0.0988,-0.620889 0,-0.578555 0.18345,-0.931332 0.18344,-0.366889 0.49389,-0.564444 0.31044,-0.211667 0.70555,-0.282222 0.40922,-0.08467 0.83256,-0.112889 0.42333,-0.02822 0.86077,-0.04233 0.45156,-0.01411 0.83256,-0.07056 0.381,-0.05644 0.67733,-0.155222 0.29633,-0.112889 0.43745,-0.310444 z"
         style="font-family:'Helvetica Neue UltraLight';-inkscape-font-specification:'Helvetica Neue UltraLight, ';text-align:center;text-anchor:middle"
         id="path916" />
      <path
         d="m 193.167,82.19722 v 7.253105 h 0.28222 v -4.10633 q 0,-0.606777 0.16934,-1.15711 0.16933,-0.550333 0.49388,-0.959555 0.33867,-0.423333 0.83256,-0.663222 0.49389,-0.254 1.143,-0.254 0.46566,0 0.87489,0.141111 0.42333,0.127 0.73377,0.423333 0.32456,0.282222 0.508,0.733778 0.18345,0.437444 0.18345,1.072443 v 4.769552 h 0.28222 V 84.63844 q 0,-0.635 -0.19756,-1.114777 -0.18344,-0.493889 -0.53622,-0.818444 -0.33866,-0.338666 -0.81844,-0.507999 -0.46567,-0.169334 -1.03011,-0.169334 -0.53622,0 -0.97367,0.155222 -0.43744,0.141111 -0.77611,0.409222 -0.32455,0.268111 -0.55033,0.620889 -0.21167,0.352777 -0.31045,0.77611 h -0.0282 V 82.19722 Z"
         style="font-family:'Helvetica Neue UltraLight';-inkscape-font-specification:'Helvetica Neue UltraLight, ';text-align:center;text-anchor:middle"
         id="path918" />
      <path
         d="m 205.86699,79.374999 v 4.854219 h -0.0282 q -0.254,-0.987777 -1.00189,-1.594554 -0.74789,-0.606778 -1.905,-0.606778 -0.74789,0 -1.32644,0.310445 -0.57856,0.310444 -0.97367,0.832554 -0.381,0.522111 -0.59266,1.213555 -0.19756,0.691444 -0.19756,1.453443 0,0.818444 0.21167,1.509888 0.21166,0.691444 0.60677,1.199444 0.40923,0.493888 0.97367,0.77611 0.57856,0.282222 1.29822,0.282222 1.11478,0 1.86267,-0.606777 0.762,-0.606778 1.04422,-1.580443 h 0.0282 v 2.031998 h 0.28222 V 79.374999 Z m 0,6.462884 q 0,0.705555 -0.19756,1.340555 -0.19755,0.634999 -0.57855,1.114777 -0.36689,0.479777 -0.91722,0.761999 -0.53622,0.282222 -1.24178,0.282222 -0.70555,0 -1.24178,-0.282222 -0.52211,-0.282222 -0.87488,-0.761999 -0.33867,-0.493889 -0.52211,-1.128888 -0.16934,-0.635 -0.16934,-1.326444 0,-0.634999 0.15522,-1.255888 0.16934,-0.634999 0.508,-1.128888 0.33867,-0.507999 0.87489,-0.818443 0.53622,-0.324556 1.27,-0.324556 1.32644,0 2.13078,0.917222 0.80433,0.90311 0.80433,2.610553 z"
         style="font-family:'Helvetica Neue UltraLight';-inkscape-font-specification:'Helvetica Neue UltraLight, ';text-align:center;text-anchor:middle"
         id="path920" />
      <path
         d="m 211.99121,89.450325 v -4.586108 h 3.65478 q 0.70555,0 1.28411,-0.169333 0.59266,-0.183444 1.01599,-0.52211 0.42334,-0.352778 0.66323,-0.860778 0.23989,-0.52211 0.23989,-1.185332 0,-1.368777 -0.80434,-2.060221 -0.80433,-0.691444 -2.25777,-0.691444 h -4.07811 v 10.075326 z m 0,-4.86833 v -4.924774 h 3.79589 q 1.41111,0 2.08844,0.635 0.69144,0.634999 0.69144,1.834443 0,0.592666 -0.21166,1.044221 -0.21167,0.451556 -0.59267,0.776111 -0.36689,0.310444 -0.87489,0.479777 -0.508,0.155222 -1.10066,0.155222 z"
         style="font-family:'Helvetica Neue UltraLight';-inkscape-font-specification:'Helvetica Neue UltraLight, ';text-align:center;text-anchor:middle"
         id="path922" />
      <path
         d="m 219.72409,85.823772 q 0,-0.677333 0.18345,-1.312332 0.19755,-0.635 0.57855,-1.114777 0.381,-0.493888 0.93133,-0.790222 0.56445,-0.296333 1.29822,-0.296333 0.71967,0 1.27,0.296333 0.56445,0.296334 0.94545,0.790222 0.381,0.479777 0.56444,1.114777 0.19756,0.634999 0.19756,1.312332 0,0.691444 -0.19756,1.326444 -0.18344,0.634999 -0.56444,1.128888 -0.381,0.479777 -0.94545,0.77611 -0.55033,0.282222 -1.27,0.282222 -0.73377,0 -1.29822,-0.282222 -0.55033,-0.296333 -0.93133,-0.77611 -0.381,-0.493889 -0.57855,-1.128888 -0.18345,-0.635 -0.18345,-1.326444 z m -0.28222,0 q 0,0.747889 0.21167,1.439332 0.21166,0.677333 0.62088,1.199444 0.42334,0.522111 1.03011,0.832555 0.60678,0.310444 1.397,0.310444 0.80434,0 1.41111,-0.310444 0.60678,-0.310444 1.016,-0.832555 0.42334,-0.522111 0.635,-1.199444 0.21167,-0.691443 0.21167,-1.439332 0,-0.747888 -0.21167,-1.425221 -0.21166,-0.691444 -0.635,-1.213554 -0.40922,-0.522111 -1.016,-0.832555 -0.60677,-0.324556 -1.397,-0.324556 -0.80433,0 -1.41111,0.324556 -0.60677,0.310444 -1.03011,0.832555 -0.40922,0.52211 -0.62088,1.213554 -0.21167,0.677333 -0.21167,1.425221 z"
         style="font-family:'Helvetica Neue UltraLight';-inkscape-font-specification:'Helvetica Neue UltraLight, ';text-align:center;text-anchor:middle"
         id="path924" />
      <path
         d="m 227.42873,89.450325 v -4.10633 q 0,-0.592666 0.16933,-1.15711 0.16934,-0.564444 0.52211,-0.987777 0.35278,-0.437444 0.889,-0.677333 0.55034,-0.254 1.29822,-0.211667 v -0.282222 q -0.64911,-0.01411 -1.14299,0.141111 -0.47978,0.155222 -0.83256,0.423333 -0.35278,0.268111 -0.56444,0.635 -0.21167,0.352777 -0.31045,0.761999 h -0.0282 V 82.19722 h -0.28222 v 7.253105 z"
         style="font-family:'Helvetica Neue UltraLight';-inkscape-font-specification:'Helvetica Neue UltraLight, ';text-align:center;text-anchor:middle"
         id="path926" />
      <path
         d="m 231.5774,82.479442 h 1.63689 V 82.19722 h -1.63689 v -2.285999 h -0.28222 v 2.285999 h -1.32644 v 0.282222 h 1.32644 v 5.616217 q 0,0.776111 0.33867,1.072444 0.35278,0.282222 0.84666,0.282222 0.32456,0 0.43745,-0.01411 0.127,-0.01411 0.254,-0.02822 V 89.12577 q -0.0706,0.02822 -0.23989,0.04233 -0.16933,0 -0.381,0 -0.16933,0 -0.33867,-0.01411 -0.16933,-0.02822 -0.31044,-0.141111 -0.14111,-0.112889 -0.23989,-0.338666 -0.0847,-0.225778 -0.0847,-0.635 z"
         style="font-family:'Helvetica Neue UltraLight';-inkscape-font-specification:'Helvetica Neue UltraLight, ';text-align:center;text-anchor:middle"
         id="path928" />
      <path
         d="m 233.42595,82.479442 h 1.22767 v 6.970883 h 0.28222 v -6.970883 h 1.56633 V 82.19722 h -1.56633 v -1.509888 q 0,-0.536222 0.19756,-0.776111 0.21166,-0.254 0.889,-0.254 0.15522,0 0.31044,0.01411 0.15522,0.01411 0.35278,0.04233 v -0.282222 q -0.11289,-0.01411 -0.26811,-0.02822 -0.14111,-0.02822 -0.33867,-0.02822 -0.22578,0 -0.47978,0.02822 -0.254,0.02822 -0.46566,0.155222 -0.21167,0.112889 -0.35278,0.352777 -0.127,0.239889 -0.127,0.677333 v 1.608666 h -1.22767 z"
         style="font-family:'Helvetica Neue UltraLight';-inkscape-font-specification:'Helvetica Neue UltraLight, ';text-align:center;text-anchor:middle"
         id="path930" />
      <path
         d="m 236.98195,85.823772 q 0,-0.677333 0.18344,-1.312332 0.19756,-0.635 0.57856,-1.114777 0.381,-0.493888 0.93133,-0.790222 0.56445,-0.296333 1.29822,-0.296333 0.71967,0 1.27,0.296333 0.56445,0.296334 0.94545,0.790222 0.381,0.479777 0.56444,1.114777 0.19756,0.634999 0.19756,1.312332 0,0.691444 -0.19756,1.326444 -0.18344,0.634999 -0.56444,1.128888 -0.381,0.479777 -0.94545,0.77611 -0.55033,0.282222 -1.27,0.282222 -0.73377,0 -1.29822,-0.282222 -0.55033,-0.296333 -0.93133,-0.77611 -0.381,-0.493889 -0.57856,-1.128888 -0.18344,-0.635 -0.18344,-1.326444 z m -0.28222,0 q 0,0.747889 0.21166,1.439332 0.21167,0.677333 0.62089,1.199444 0.42334,0.522111 1.03011,0.832555 0.60678,0.310444 1.397,0.310444 0.80433,0 1.41111,-0.310444 0.60678,-0.310444 1.016,-0.832555 0.42333,-0.522111 0.635,-1.199444 0.21167,-0.691443 0.21167,-1.439332 0,-0.747888 -0.21167,-1.425221 -0.21167,-0.691444 -0.635,-1.213554 -0.40922,-0.522111 -1.016,-0.832555 -0.60678,-0.324556 -1.397,-0.324556 -0.80433,0 -1.41111,0.324556 -0.60677,0.310444 -1.03011,0.832555 -0.40922,0.52211 -0.62089,1.213554 -0.21166,0.677333 -0.21166,1.425221 z"
         style="font-family:'Helvetica Neue UltraLight';-inkscape-font-specification:'Helvetica Neue UltraLight, ';text-align:center;text-anchor:middle"
         id="path932" />
      <path
         d="m 244.40438,79.374999 v 10.075326 h 0.28222 V 79.374999 Z"
         style="font-family:'Helvetica Neue UltraLight';-inkscape-font-specification:'Helvetica Neue UltraLight, ';text-align:center;text-anchor:middle"
         id="path934" />
      <path
         d="m 246.52103,80.800221 v -1.425222 h -0.28222 v 1.425222 z m 0,8.650104 V 82.19722 h -0.28222 v 7.253105 z"
         style="font-family:'Helvetica Neue UltraLight';-inkscape-font-specification:'Helvetica Neue UltraLight, ';text-align:center;text-anchor:middle"
         id="path936" />
      <path
         d="m 247.97447,85.823772 q 0,-0.677333 0.18345,-1.312332 0.19755,-0.635 0.57855,-1.114777 0.381,-0.493888 0.93133,-0.790222 0.56445,-0.296333 1.29823,-0.296333 0.71966,0 1.27,0.296333 0.56444,0.296334 0.94544,0.790222 0.381,0.479777 0.56444,1.114777 0.19756,0.634999 0.19756,1.312332 0,0.691444 -0.19756,1.326444 -0.18344,0.634999 -0.56444,1.128888 -0.381,0.479777 -0.94544,0.77611 -0.55034,0.282222 -1.27,0.282222 -0.73378,0 -1.29823,-0.282222 -0.55033,-0.296333 -0.93133,-0.77611 -0.381,-0.493889 -0.57855,-1.128888 -0.18345,-0.635 -0.18345,-1.326444 z m -0.28222,0 q 0,0.747889 0.21167,1.439332 0.21166,0.677333 0.62089,1.199444 0.42333,0.522111 1.03011,0.832555 0.60677,0.310444 1.397,0.310444 0.80433,0 1.41111,-0.310444 0.60677,-0.310444 1.01599,-0.832555 0.42334,-0.522111 0.635,-1.199444 0.21167,-0.691443 0.21167,-1.439332 0,-0.747888 -0.21167,-1.425221 -0.21166,-0.691444 -0.635,-1.213554 -0.40922,-0.522111 -1.01599,-0.832555 -0.60678,-0.324556 -1.397,-0.324556 -0.80434,0 -1.41111,0.324556 -0.60678,0.310444 -1.03011,0.832555 -0.40923,0.52211 -0.62089,1.213554 -0.21167,0.677333 -0.21167,1.425221 z"
         style="font-family:'Helvetica Neue UltraLight';-inkscape-font-specification:'Helvetica Neue UltraLight, ';text-align:center;text-anchor:middle"
         id="path938" />
    </g>
    <g
       id="g3400"
       style="fill:#4717f6;fill-opacity:1;stroke:#ffffff;stroke-width:1.007;stroke-opacity:1"
       transform="matrix(1.4895557,0,0,1.4895828,118.10342,155.53267)">
      <path
         d="m 43.088214,-15.029395 v -5.446385 c 0,-1.712401 -1.389358,-3.091835 -3.114076,-3.091835 h -7.904961 c -1.72472,0 -3.114076,1.379434 -3.114076,3.091835 v 7.610669 c 0,1.7124 1.389356,3.0918343 3.114076,3.0918343 h 8.431957 v 2.3783342 c 0,0.2854001 -0.239544,0.5232333 -0.526996,0.5232333 h -8.575684 v 2.568601 h 8.575684 c 1.724718,0 3.114076,-1.3794339 3.114076,-3.0918343 v -7.6106695 c 0,0 0,-0.02378 0,-0.02378 z m -11.019037,2.687517 c -0.287454,0 -0.526998,-0.237833 -0.526998,-0.523233 v -7.610669 c 0,-0.2854 0.239544,-0.523234 0.526998,-0.523234 h 7.904961 c 0.287452,0 0.526996,0.237834 0.526996,0.523234 v 7.610669 c 0,0.2854 -0.239544,0.523233 -0.526996,0.523233 z"
         style="font-size:10.5833px;line-height:1.25;font-family:Orbitron;-inkscape-font-specification:Orbitron;fill:#4717f6;fill-opacity:1;stroke:#ffffff;stroke-width:0.266436;stroke-linecap:round;stroke-linejoin:round;stroke-miterlimit:4;stroke-dasharray:none;stroke-opacity:1;paint-order:normal"
         id="path1922" />
      <path
         d="m 25.697301,-17.740696 c 0,0 0,0 0,0 v 7.610669 c 0,1.7124017 1.389356,3.0918347 3.114073,3.0918347 h 2.58708 v -2.568601 h -2.58708 c -0.287452,0 -0.526996,-0.237833 -0.526996,-0.5232337 v -15.221338 h -2.587077 z"
         style="font-size:10.5833px;line-height:1.25;font-family:Orbitron;-inkscape-font-specification:Orbitron;fill:#4717f6;fill-opacity:1;stroke:#ffffff;stroke-width:0.266436;stroke-linecap:round;stroke-linejoin:round;stroke-miterlimit:4;stroke-dasharray:none;stroke-opacity:1;paint-order:normal"
         id="path1920" />
    </g>
  </g>
</svg>
