<?xml version="1.0" encoding="UTF-8" standalone="no"?>
<svg
   viewBox="0 0 60 60"
   width="120"
   height="120"
   version="1.1"
   id="svg10"
   sodipodi:docname="inkscape_logo.svg"
   inkscape:version="1.1 (c68e22c387, 2021-05-23)"
   xmlns:inkscape="http://www.inkscape.org/namespaces/inkscape"
   xmlns:sodipodi="http://sodipodi.sourceforge.net/DTD/sodipodi-0.dtd"
   xmlns="http://www.w3.org/2000/svg"
   xmlns:svg="http://www.w3.org/2000/svg">
  <defs
     id="defs14" />
  <sodipodi:namedview
     id="namedview12"
     pagecolor="#ffffff"
     bordercolor="#999999"
     borderopacity="1"
     inkscape:pageshadow="0"
     inkscape:pageopacity="0"
     inkscape:pagecheckerboard="0"
     showgrid="false"
     width="120px"
     inkscape:zoom="5.575"
     inkscape:cx="60"
     inkscape:cy="60"
     inkscape:window-width="1280"
     inkscape:window-height="961"
     inkscape:window-x="-8"
     inkscape:window-y="-8"
     inkscape:window-maximized="1"
     inkscape:current-layer="svg10" />
  <g
     id="g1410">
    <path
       id="path2"
       style="fill:#8776da;fill-opacity:1;stroke-width:1.46666"
       d="M 59.277344 0 C 55.581533 0 51.939464 1.3662813 49.314453 4.0976562 L 5.203125 49.984375 C -11.517853 66.967173 16.540769 65.603447 26.511719 72.037109 C 31.109919 75.080759 12.963002 79.014735 16.912109 83.029297 C 20.760307 87.068405 38.936958 90.707442 42.785156 94.621094 C 46.633354 98.635656 35.07843 102.90926 38.951172 106.92383 C 42.701188 110.93839 51.013212 107.11396 52.638672 116.24219 C 53.814132 123.0004 68.399837 119.60573 75.248047 113.8457 C 79.521701 110.15569 67.774851 110.15825 71.623047 106.11914 C 75.073063 102.57913 78.371082 101.00607 81.371094 100.03516 C 86.743844 98.265148 92.879741 98.660869 95.154297 92.775391 C 97.079759 87.888097 80.793071 84.063705 85.189453 80.921875 C 95.684041 73.419117 133.06311 69.685479 115.26758 51.630859 L 69.558594 4.0976562 C 66.722219 1.3662813 62.973154 0 59.277344 0 z M 59.373047 5.4550781 C 61.773057 5.4550781 64.117678 6.3557464 65.808594 7.9648438 L 67.554688 9.7910156 L 84.736328 27.628906 C 84.654508 27.901636 84.519176 28.119567 84.382812 28.283203 L 76.064453 21.4375 L 74.427734 31.5 L 67.582031 27.763672 L 56.427734 34.910156 L 55.335938 30.492188 L 52.746094 19.882812 L 46.800781 32.945312 L 31.935547 32.837891 C 31.008271 32.837891 30.436791 32.510371 30.164062 31.992188 L 53.345703 7.8828125 C 54.845709 6.3282605 56.973037 5.4550781 59.373047 5.4550781 z M 39.291016 73.517578 C 40.491022 73.520378 79.803656 79.14968 64.683594 84.285156 C 58.885388 86.281528 32.317352 73.517578 39.291016 73.517578 z M 112.02734 87.199219 C 108.36972 87.345128 104.64518 89.358734 103.69336 93.09375 C 103.69336 95.545578 120.91199 96.944328 119.96289 92.509766 C 119.27698 88.77475 115.68497 87.053309 112.02734 87.199219 z M 100.00195 98.128906 C 94.964661 103.32165 100.87648 108.76216 105.80469 105.17578 C 107.12197 104.18578 105.69926 99.364366 100.00195 98.128906 z "
       transform="scale(0.5)" />
    <path
       fill="#212121"
       d="m 10.29809,53.756472 c 2.014099,2.120463 5.060475,-0.463638 6.040934,-3.445923 -1.959554,-3.114558 -9.1977656,0.199092 -6.040934,3.445923 z"
       id="path4"
       style="stroke-width:0.73333;fill:#8776da;fill-opacity:1" />
    <path
       id="path6"
       style="fill:#e8bdff;fill-opacity:1;stroke-width:1.46666"
       d="M 52.746094 19.882812 L 46.800781 32.945312 L 31.935547 32.837891 C 31.008271 32.837891 30.436791 32.510371 30.164062 31.992188 L 9.21875 53.755859 C 6.464193 56.564961 5.7260661 58.118676 5.5351562 58.691406 C 6.9806167 60.027774 12.627225 61.582276 15.736328 62.427734 C 17.399972 62.8641 19.062848 63.327519 20.699219 63.845703 C 24.926509 64.609343 29.454351 65.592074 33.681641 67.201172 L 55.335938 30.492188 L 52.746094 19.882812 z "
       transform="scale(0.5)" />
    <path
       fill="#fafafa"
       d="m 42.368222,13.814034 c -0.04091,0.136365 -0.109091,0.245456 -0.177273,0.327274 l -4.159108,-3.422741 -0.818186,5.031839 -3.422741,-1.86819 -5.577296,3.572742 -0.545457,-2.2091 -1.29546,-5.3045669 -2.972739,6.5318449 -7.431849,-0.05455 c -0.463638,0 -0.750003,-0.163637 -0.886367,-0.422729 L 26.672703,3.9412663 c 0.750003,-0.777276 1.813644,-1.2136414 3.013649,-1.2136414 1.200005,0 2.372737,0.4500019 3.218195,1.2545506 l 0.872731,0.9136402 z"
       id="path8"
       style="stroke-width:0.73333;fill:#fafafa;fill-opacity:1" />
  </g>
</svg>
