<?xml version="1.0" encoding="UTF-8" standalone="no"?>
<!-- Created with Inkscape (http://www.inkscape.org/) -->

<svg
   width="120"
   height="120"
   viewBox="0 0 31.75 31.75"
   version="1.1"
   id="svg5"
   inkscape:version="1.1.2 (b8e25be833, 2022-02-05)"
   sodipodi:docname="sqlite.svg"
   xmlns:inkscape="http://www.inkscape.org/namespaces/inkscape"
   xmlns:sodipodi="http://sodipodi.sourceforge.net/DTD/sodipodi-0.dtd"
   xmlns:xlink="http://www.w3.org/1999/xlink"
   xmlns="http://www.w3.org/2000/svg"
   xmlns:svg="http://www.w3.org/2000/svg">
  <sodipodi:namedview
     id="namedview7"
     pagecolor="#ffffff"
     bordercolor="#999999"
     borderopacity="1"
     inkscape:pageshadow="0"
     inkscape:pageopacity="0"
     inkscape:pagecheckerboard="0"
     inkscape:document-units="px"
     showgrid="false"
     inkscape:zoom="2.7875"
     inkscape:cx="26.90583"
     inkscape:cy="77.130045"
     inkscape:window-width="1920"
     inkscape:window-height="1057"
     inkscape:window-x="-8"
     inkscape:window-y="-8"
     inkscape:window-maximized="1"
     inkscape:current-layer="layer3" />
  <defs
     id="defs2">
    <linearGradient
       inkscape:collect="always"
       id="linearGradient7645">
      <stop
         style="stop-color:#8776da;stop-opacity:1"
         offset="0"
         id="stop7641" />
      <stop
         style="stop-color:#e8bdff;stop-opacity:0"
         offset="1"
         id="stop7643" />
    </linearGradient>
    <linearGradient
       inkscape:collect="always"
       xlink:href="#linearGradient7645"
       id="linearGradient7647"
       x1="15.247953"
       y1="27.178921"
       x2="15.456294"
       y2="2.2201338"
       gradientUnits="userSpaceOnUse" />
  </defs>
  <g
     inkscape:groupmode="layer"
     id="layer3"
     inkscape:label="feather"
     style="display:inline">
    <path
       id="path3745"
       style="color:#000000;fill:url(#linearGradient7647);stroke-width:0.661458;-inkscape-stroke:none"
       d="m 5.6864747,2.0003947 c -1.7088885,0 -3.0845664,1.375678 -3.0845664,3.0845662 V 24.530285 c 0,1.708888 1.3756779,3.085084 3.0845664,3.085084 L 17.12867,27.600394 c -0.03447,-0.557864 -0.05633,-1.177578 -0.05633,-1.879473 0,-2.078108 -0.286023,-3.62238 -0.568441,-4.642611 -0.282417,-1.020231 -0.548804,-1.494482 -0.548804,-1.494482 l 0.0093,0.0124 c -0.0074,-0.01088 -0.01542,-0.02119 -0.02119,-0.03152 -0.02166,-0.03875 -0.04294,-0.08605 -0.05839,-0.142627 -0.03091,-0.113152 -0.04133,-0.259788 -0.01757,-0.447518 0.02535,-0.200322 0.103542,-0.561505 0.179834,-0.906404 0.07629,-0.344898 0.148311,-0.65009 0.148311,-0.65009 a 0.35280298,0.35280298 0 0 1 0.26355,-0.254248 c -0.02205,-0.04204 -0.02954,-0.0846 -0.05271,-0.126607 a 0.35280298,0.35280298 0 0 1 -0.02739,-0.275436 l 0.482657,-1.529105 a 0.35280298,0.35280298 0 0 1 0.265617,-0.228927 c -0.01506,-0.0324 -0.01946,-0.06306 -0.03514,-0.0956 a 0.35280298,0.35280298 0 0 1 -0.02739,-0.224792 c 0,0 0.516006,-2.506683 1.259871,-4.255555 0.714469,-1.6797631 0.505959,-1.4091128 1.70894,-3.7537757 1.155213,-2.251561 3.062315,-4.3999748 3.303674,-4.667932 -0.0594,-0.00338 -0.119032,-0.00568 -0.179317,-0.00568 z" />
    <path
       id="path3747"
       style="color:#000000;fill:#8776da;stroke-width:1;-inkscape-stroke:none"
       d="m 5.6854409,1.6696655 c -1.8863804,0 -3.413745,1.5278812 -3.413745,3.4142619 V 24.531319 c 0,1.88638 1.5272977,3.413745 3.413745,3.413745 h 0.00206 l 11.4628661,-0.01498 c -0.04639,-0.618722 -0.0759,-1.328179 -0.07751,-2.140954 l -0.03566,1.480531 -11.3517613,0.0155 c -1.5313255,0 -2.7517698,-1.222445 -2.7517698,-2.753837 V 5.0839274 c 0,-1.5313924 1.2203774,-2.75177 2.7517698,-2.75177 H 23.052853 c 0.202318,-0.2358984 0.329895,-0.3767457 0.331762,-0.3787883 0,0 0.08762,-0.1026089 0.234095,-0.252181 -0.150768,-0.020195 -0.304238,-0.031523 -0.460437,-0.031523 z" />
    <path
       style="fill:#8776da;fill-opacity:1;stroke:none;stroke-width:0.0529167;stroke-linecap:butt;stroke-linejoin:miter;stroke-miterlimit:4;stroke-dasharray:none;stroke-opacity:1"
       d="m 23.650112,2.1849492 c 0,0 2.631999,-3.00447493 4.832699,-1.391695 2.112406,1.548074 1.595243,4.4784943 1.59036,4.6216928 -0.0047,0.1364461 -0.15411,1.9937872 -1.850347,5.456625 -1.644441,3.357098 -2.462701,4.306527 -2.446936,4.343312 -1.60689,0.563856 -3.160547,1.289959 -4.588005,2.18695 1.246153,-0.591215 2.594898,-0.98351 3.899805,-1.192882 l -2.87515,4.083325 c -1.898496,0.880856 -3.039642,2.140388 -3.670405,3.655111 0,0 0.611734,-3.028083 1.192881,-5.031513 0.581148,-2.003429 1.406989,-4.068031 1.406989,-4.068031 0,0 1.376401,-3.272777 2.079896,-4.618592 0.703494,-1.3458148 1.809406,-3.4985178 2.82927,-5.0620993 1.070535,-1.6412664 2.018723,-2.6054319 2.018723,-2.5998697 0,0 -1.988137,1.4681616 -4.297433,5.1079792 -2.309296,3.6398178 -3.624524,7.2490488 -3.624524,7.2490488 0,0 -1.106572,3.334351 -1.483455,5.046806 -0.294592,1.338548 -0.235804,0.326062 -0.688201,4.052738 -0.451866,3.722303 0.08402,6.453795 0.36704,7.218462 0.283941,0.767155 -0.168226,0.137639 -0.168226,0.137639 0,0 -0.749375,-1.437574 -0.749375,-5.658539 0,-4.220965 -1.162294,-6.308508 -1.162294,-6.308508 0,0 -0.08411,-0.09176 -0.04588,-0.393803 0.03823,-0.302044 0.32116,-1.521689 0.32116,-1.521689 0.539496,0.804175 0.860593,1.608351 1.185235,2.412526 -0.212923,-1.014459 -0.449927,-2.028918 -1.009362,-3.043377 l 0.481741,-1.529335 c 0.568322,0.811902 0.832601,1.55364 1.124061,2.30165 -0.23058,-0.942748 -0.425122,-1.876486 -0.909954,-2.882797 0,0 0.519974,-2.500463 1.238761,-4.190378 0.718788,-1.6899158 0.497034,-1.3916948 1.697563,-3.7315778 1.200528,-2.3398828 3.303363,-4.649179 3.303363,-4.649179 z"
       id="path12311"
       sodipodi:nodetypes="cssscccccscsscscssscscsccccccssc" />
  </g>
</svg>
