<?xml version="1.0" encoding="UTF-8" standalone="no"?>
<!-- Created with Inkscape (http://www.inkscape.org/) -->

<svg
   width="120"
   height="120"
   viewBox="0 0 31.75 31.75"
   version="1.1"
   id="svg5"
   inkscape:version="1.1 (c68e22c387, 2021-05-23)"
   sodipodi:docname="icon.svg"
   xmlns:inkscape="http://www.inkscape.org/namespaces/inkscape"
   xmlns:sodipodi="http://sodipodi.sourceforge.net/DTD/sodipodi-0.dtd"
   xmlns="http://www.w3.org/2000/svg"
   xmlns:svg="http://www.w3.org/2000/svg">
  <sodipodi:namedview
     id="namedview7"
     pagecolor="#ffffff"
     bordercolor="#999999"
     borderopacity="1"
     inkscape:pageshadow="0"
     inkscape:pageopacity="0"
     inkscape:pagecheckerboard="0"
     inkscape:document-units="px"
     showgrid="false"
     inkscape:snap-nodes="true"
     inkscape:object-paths="true"
     inkscape:zoom="5.575"
     inkscape:cx="60"
     inkscape:cy="60"
     inkscape:window-width="1280"
     inkscape:window-height="961"
     inkscape:window-x="-8"
     inkscape:window-y="-8"
     inkscape:window-maximized="1"
     inkscape:current-layer="layer1"
     width="1080px" />
  <defs
     id="defs2" />
  <g
     inkscape:label="Camada 1"
     inkscape:groupmode="layer"
     id="layer1">
    <g
       id="g2763"
       transform="matrix(1.2408545,0,0,1.2399785,-36.352078,66.152121)"
       style="stroke-width:0.806181">
      <path
         style="color:#000000;fill:#000080;stroke:#ffffff;stroke-width:0.213302;stroke-linecap:round;stroke-linejoin:round;stroke-miterlimit:4;stroke-dasharray:none;stroke-opacity:1"
         d="m 50.121427,-40.553026 c 1.637971,-1.637971 1.636591,-4.321336 -0.0014,-5.959307 l -5.30192,-5.30192 c -1.637971,-1.637971 -4.321338,-1.639352 -5.959308,-0.0014 -1.637973,1.637972 -1.637972,4.322718 -10e-7,5.960689 l 5.30192,5.30192 c 1.637971,1.637971 4.322717,1.637971 5.960689,-10e-7 z m -1.497077,-1.497077 c -0.834685,0.834685 -2.131851,0.834685 -2.966535,2e-6 l -5.30192,-5.30192 c -0.834683,-0.834685 -0.834683,-2.131851 1e-6,-2.966535 0.834684,-0.834684 2.13185,-0.834684 2.966534,0 l 5.30192,5.30192 c 0.834683,0.834683 0.834683,2.131849 0,2.966533 z"
         id="path1786" />
      <path
         id="path1762"
         style="color:#000000;fill:#4717f6;fill-opacity:1;stroke:#ffffff;stroke-width:0.213302;stroke-linecap:round;stroke-linejoin:round;stroke-miterlimit:4;stroke-dasharray:none;stroke-opacity:1"
         d="m 45.320336,-47.016274 c -1.637973,-1.637973 -4.321095,-1.63653 -5.959065,0.0015 l -5.302065,5.302064 c -1.637971,1.637971 -1.639412,4.321097 -0.0015,5.959067 1.637971,1.637971 4.322922,1.638338 5.960893,3.66e-4 l 4.489763,-4.489763 c -0.120188,-0.09603 -0.236715,-0.198715 -0.347868,-0.309868 l -1.168208,-1.168208 -4.470397,4.470396 c -0.834682,0.834686 -2.132424,0.834684 -2.967107,1e-6 -0.834685,-0.834684 -0.834321,-2.13206 3.64e-4,-2.966745 l 5.301698,-5.301698 c 0.834683,-0.834683 2.131696,-0.834684 2.966379,2e-6 0.593423,0.593423 0.764863,1.420767 0.514494,2.149327 l 1.319851,1.319851 c 0.08499,0.08499 0.174972,0.160732 0.268574,0.228382 0.998424,-1.623024 0.796309,-3.792477 -0.605847,-5.194633 z" />
      <path
         id="path2632"
         style="color:#000000;fill:#8776da;fill-opacity:1;stroke:#ffffff;stroke-width:0.213302;stroke-linecap:round;stroke-linejoin:round;stroke-miterlimit:4;stroke-dasharray:none;stroke-opacity:1"
         d="m 37.205042,-40.540442 c -1.637973,1.637973 -1.63653,4.321095 0.0015,5.959065 l 5.302064,5.302065 c 1.637971,1.637971 4.321097,1.639412 5.959067,0.0015 1.637971,-1.637971 1.638338,-4.322922 3.66e-4,-5.960893 l -4.489763,-4.489763 c -0.09603,0.120188 -0.198715,0.236715 -0.309868,0.347868 l -1.168208,1.168208 4.470396,4.470397 c 0.834686,0.834682 0.834684,2.132424 10e-7,2.967107 -0.834684,0.834685 -2.13206,0.834321 -2.966745,-3.64e-4 l -5.301698,-5.301698 c -0.834683,-0.834683 -0.834684,-2.131696 2e-6,-2.966379 0.593423,-0.593423 1.420767,-0.764863 2.149327,-0.514494 l 1.319851,-1.319851 c 0.08499,-0.08499 0.160732,-0.174972 0.228382,-0.268574 -1.623024,-0.998424 -3.792477,-0.796309 -5.194633,0.605847 z" />
    </g>
  </g>
</svg>
