<?xml version="1.0" encoding="UTF-8" standalone="no"?><svg width="1200" height="630" viewBox="0 0 317.5 166.6875" version="1.1" id="svg5" inkscape:version="1.2 (dc2aeda, 2022-05-15)" sodipodi:docname="OG.svg" xmlns:inkscape="http://www.inkscape.org/namespaces/inkscape" xmlns:sodipodi="http://sodipodi.sourceforge.net/DTD/sodipodi-0.dtd" xmlns:xlink="http://www.w3.org/1999/xlink" xmlns="http://www.w3.org/2000/svg" xmlns:svg="http://www.w3.org/2000/svg"><sodipodi:namedview id="namedview7" pagecolor="#ffffff" bordercolor="#999999" borderopacity="1" inkscape:pageshadow="0" inkscape:pageopacity="0" inkscape:pagecheckerboard="0" inkscape:document-units="px" showgrid="false" inkscape:snap-nodes="false" inkscape:zoom="0.79961992" inkscape:cx="600.91049" inkscape:cy="315.14973" inkscape:window-width="1920" inkscape:window-height="1052" inkscape:window-x="0" inkscape:window-y="0" inkscape:window-maximized="1" inkscape:current-layer="layer1" inkscape:showpageshadow="0" inkscape:deskcolor="#d1d1d1" /><defs id="defs2"><linearGradient inkscape:collect="always" id="linearGradient6416"><stop style="stop-color:#202020;stop-opacity:1;" offset="0" id="stop6412" /><stop style="stop-color:#101010;stop-opacity:1;" offset="1" id="stop6414" /></linearGradient><radialGradient inkscape:collect="always" xlink:href="#linearGradient6416" id="radialGradient6418" cx="158.75" cy="83.34375" fx="158.75" fy="83.34375" r="158.75" gradientTransform="matrix(1,0,0,0.525,0,39.588281)" gradientUnits="userSpaceOnUse" /></defs><g inkscape:label="Camada 1" inkscape:groupmode="layer" id="layer1"><rect style="fill:url(#radialGradient6418);fill-opacity:1;stroke:none;stroke-width:0.499998;stroke-linecap:round;stroke-linejoin:round;paint-order:stroke fill markers" id="rect867" width="317.5" height="166.6875" x="0" y="0" /><g id="g3400" style="fill:#4717f6;fill-opacity:1;stroke:#4717f6;stroke-width:1.007;stroke-opacity:1" transform="matrix(5.3430211,0,0,5.3431186,-25.327258,162.56743)"><path d="m 43.088214,-15.029395 v -5.446385 c 0,-1.712401 -1.389358,-3.091835 -3.114076,-3.091835 h -7.904961 c -1.72472,0 -3.114076,1.379434 -3.114076,3.091835 v 7.610669 c 0,1.7124 1.389356,3.0918343 3.114076,3.0918343 h 8.431957 v 2.3783342 c 0,0.2854001 -0.239544,0.5232333 -0.526996,0.5232333 h -8.575684 v 2.568601 h 8.575684 c 1.724718,0 3.114076,-1.3794339 3.114076,-3.0918343 v -7.6106695 c 0,0 0,-0.02378 0,-0.02378 z m -11.019037,2.687517 c -0.287454,0 -0.526998,-0.237833 -0.526998,-0.523233 v -7.610669 c 0,-0.2854 0.239544,-0.523234 0.526998,-0.523234 h 7.904961 c 0.287452,0 0.526996,0.237834 0.526996,0.523234 v 7.610669 c 0,0.2854 -0.239544,0.523233 -0.526996,0.523233 z" style="font-size:10.5833px;line-height:1.25;font-family:Orbitron;-inkscape-font-specification:Orbitron;fill:#4717f6;fill-opacity:1;stroke:#4717f6;stroke-width:0.266436;stroke-linecap:round;stroke-linejoin:round;stroke-miterlimit:4;stroke-dasharray:none;stroke-opacity:1;paint-order:normal" id="path1922" /><path d="m 25.697301,-17.740696 c 0,0 0,0 0,0 v 7.610669 c 0,1.7124017 1.389356,3.0918347 3.114073,3.0918347 h 2.58708 v -2.568601 h -2.58708 c -0.287452,0 -0.526996,-0.237833 -0.526996,-0.5232337 v -15.221338 h -2.587077 z" style="font-size:10.5833px;line-height:1.25;font-family:Orbitron;-inkscape-font-specification:Orbitron;fill:#4717f6;fill-opacity:1;stroke:#4717f6;stroke-width:0.266436;stroke-linecap:round;stroke-linejoin:round;stroke-miterlimit:4;stroke-dasharray:none;stroke-opacity:1;paint-order:normal" id="path1920" /></g></g></svg>
