<?xml version="1.0" encoding="UTF-8" standalone="no"?>
<svg
   id="visual"
   viewBox="0 0 200 200"
   width="200"
   height="200"
   version="1.1"
   sodipodi:docname="deco_1.svg"
   inkscape:version="1.1 (c68e22c387, 2021-05-23)"
   xmlns:inkscape="http://www.inkscape.org/namespaces/inkscape"
   xmlns:sodipodi="http://sodipodi.sourceforge.net/DTD/sodipodi-0.dtd"
   xmlns:xlink="http://www.w3.org/1999/xlink"
   xmlns="http://www.w3.org/2000/svg"
   xmlns:svg="http://www.w3.org/2000/svg">
  <defs
     id="defs37">
    <linearGradient
       inkscape:collect="always"
       id="linearGradient1245">
      <stop
         style="stop-color:#4717f6;stop-opacity:1;"
         offset="0"
         id="stop1241" />
      <stop
         style="stop-color:#8776da;stop-opacity:1"
         offset="0.52897221"
         id="stop1569" />
      <stop
         style="stop-color:#e8bdff;stop-opacity:1"
         offset="1"
         id="stop1243" />
    </linearGradient>
    <linearGradient
       inkscape:collect="always"
       xlink:href="#linearGradient1245"
       id="linearGradient1247"
       x1="121.07422"
       y1="51.275391"
       x2="143.37305"
       y2="89.876953"
       gradientUnits="userSpaceOnUse" />
    <linearGradient
       inkscape:collect="always"
       xlink:href="#linearGradient1245"
       id="linearGradient1827"
       gradientUnits="userSpaceOnUse"
       x1="121.07422"
       y1="51.275391"
       x2="143.37305"
       y2="89.876953"
       gradientTransform="rotate(60,127.93659,80.987883)" />
    <linearGradient
       inkscape:collect="always"
       xlink:href="#linearGradient1245"
       id="linearGradient1833"
       gradientUnits="userSpaceOnUse"
       gradientTransform="rotate(180,127.93658,80.987875)"
       x1="121.07422"
       y1="51.275391"
       x2="143.37305"
       y2="89.876953" />
    <linearGradient
       inkscape:collect="always"
       xlink:href="#linearGradient1245"
       id="linearGradient1835"
       gradientUnits="userSpaceOnUse"
       x1="121.07422"
       y1="51.275391"
       x2="143.37305"
       y2="89.876953"
       gradientTransform="rotate(120,127.93659,80.987868)" />
    <linearGradient
       inkscape:collect="always"
       xlink:href="#linearGradient1245"
       id="linearGradient1841"
       gradientUnits="userSpaceOnUse"
       gradientTransform="rotate(-60,128.04549,80.998454)"
       x1="121.07422"
       y1="51.275391"
       x2="143.37305"
       y2="89.876953" />
    <linearGradient
       inkscape:collect="always"
       xlink:href="#linearGradient1245"
       id="linearGradient1843"
       gradientUnits="userSpaceOnUse"
       gradientTransform="rotate(-120,127.98799,81.024609)"
       x1="121.07422"
       y1="51.275391"
       x2="143.37305"
       y2="89.876953" />
    <linearGradient
       inkscape:collect="always"
       xlink:href="#linearGradient1245"
       id="linearGradient1867"
       gradientUnits="userSpaceOnUse"
       x1="121.07422"
       y1="51.275391"
       x2="143.37305"
       y2="89.876953" />
    <linearGradient
       inkscape:collect="always"
       xlink:href="#linearGradient1245"
       id="linearGradient1869"
       gradientUnits="userSpaceOnUse"
       gradientTransform="rotate(60,127.93659,80.987883)"
       x1="121.07422"
       y1="51.275391"
       x2="143.37305"
       y2="89.876953" />
    <linearGradient
       inkscape:collect="always"
       xlink:href="#linearGradient1245"
       id="linearGradient1871"
       gradientUnits="userSpaceOnUse"
       gradientTransform="rotate(120,127.93659,80.987868)"
       x1="121.07422"
       y1="51.275391"
       x2="143.37305"
       y2="89.876953" />
    <linearGradient
       inkscape:collect="always"
       xlink:href="#linearGradient1245"
       id="linearGradient1873"
       gradientUnits="userSpaceOnUse"
       gradientTransform="rotate(180,127.93658,80.987875)"
       x1="121.07422"
       y1="51.275391"
       x2="143.37305"
       y2="89.876953" />
    <linearGradient
       inkscape:collect="always"
       xlink:href="#linearGradient1245"
       id="linearGradient1875"
       gradientUnits="userSpaceOnUse"
       gradientTransform="rotate(-120,127.98799,81.024609)"
       x1="121.07422"
       y1="51.275391"
       x2="143.37305"
       y2="89.876953" />
    <linearGradient
       inkscape:collect="always"
       xlink:href="#linearGradient1245"
       id="linearGradient1877"
       gradientUnits="userSpaceOnUse"
       gradientTransform="rotate(-60,128.04549,80.998454)"
       x1="121.07422"
       y1="51.275391"
       x2="143.37305"
       y2="89.876953" />
    <linearGradient
       inkscape:collect="always"
       xlink:href="#linearGradient1245"
       id="linearGradient1973"
       gradientUnits="userSpaceOnUse"
       x1="121.07422"
       y1="51.275391"
       x2="143.37305"
       y2="89.876953" />
    <linearGradient
       inkscape:collect="always"
       xlink:href="#linearGradient1245"
       id="linearGradient1975"
       gradientUnits="userSpaceOnUse"
       gradientTransform="rotate(60,127.93659,80.987883)"
       x1="121.07422"
       y1="51.275391"
       x2="143.37305"
       y2="89.876953" />
    <linearGradient
       inkscape:collect="always"
       xlink:href="#linearGradient1245"
       id="linearGradient1977"
       gradientUnits="userSpaceOnUse"
       gradientTransform="rotate(120,127.93659,80.987868)"
       x1="121.07422"
       y1="51.275391"
       x2="143.37305"
       y2="89.876953" />
    <linearGradient
       inkscape:collect="always"
       xlink:href="#linearGradient1245"
       id="linearGradient1979"
       gradientUnits="userSpaceOnUse"
       gradientTransform="rotate(180,127.93658,80.987875)"
       x1="121.07422"
       y1="51.275391"
       x2="143.37305"
       y2="89.876953" />
    <linearGradient
       inkscape:collect="always"
       xlink:href="#linearGradient1245"
       id="linearGradient1981"
       gradientUnits="userSpaceOnUse"
       gradientTransform="rotate(-120,127.98799,81.024609)"
       x1="121.07422"
       y1="51.275391"
       x2="143.37305"
       y2="89.876953" />
    <linearGradient
       inkscape:collect="always"
       xlink:href="#linearGradient1245"
       id="linearGradient1983"
       gradientUnits="userSpaceOnUse"
       gradientTransform="rotate(-60,128.04549,80.998454)"
       x1="121.07422"
       y1="51.275391"
       x2="143.37305"
       y2="89.876953" />
    <linearGradient
       inkscape:collect="always"
       xlink:href="#linearGradient1245"
       id="linearGradient2079"
       gradientUnits="userSpaceOnUse"
       x1="121.07422"
       y1="51.275391"
       x2="143.37305"
       y2="89.876953" />
    <linearGradient
       inkscape:collect="always"
       xlink:href="#linearGradient1245"
       id="linearGradient2081"
       gradientUnits="userSpaceOnUse"
       gradientTransform="rotate(60,127.93659,80.987883)"
       x1="121.07422"
       y1="51.275391"
       x2="143.37305"
       y2="89.876953" />
    <linearGradient
       inkscape:collect="always"
       xlink:href="#linearGradient1245"
       id="linearGradient2083"
       gradientUnits="userSpaceOnUse"
       gradientTransform="rotate(120,127.93659,80.987868)"
       x1="121.07422"
       y1="51.275391"
       x2="143.37305"
       y2="89.876953" />
    <linearGradient
       inkscape:collect="always"
       xlink:href="#linearGradient1245"
       id="linearGradient2085"
       gradientUnits="userSpaceOnUse"
       gradientTransform="rotate(180,127.93658,80.987875)"
       x1="121.07422"
       y1="51.275391"
       x2="143.37305"
       y2="89.876953" />
    <linearGradient
       inkscape:collect="always"
       xlink:href="#linearGradient1245"
       id="linearGradient2087"
       gradientUnits="userSpaceOnUse"
       gradientTransform="rotate(-120,127.98799,81.024609)"
       x1="121.07422"
       y1="51.275391"
       x2="143.37305"
       y2="89.876953" />
    <linearGradient
       inkscape:collect="always"
       xlink:href="#linearGradient1245"
       id="linearGradient2089"
       gradientUnits="userSpaceOnUse"
       gradientTransform="rotate(-60,128.04549,80.998454)"
       x1="121.07422"
       y1="51.275391"
       x2="143.37305"
       y2="89.876953" />
    <linearGradient
       inkscape:collect="always"
       xlink:href="#linearGradient1245"
       id="linearGradient2279"
       gradientUnits="userSpaceOnUse"
       x1="121.07422"
       y1="51.275391"
       x2="143.37305"
       y2="89.876953" />
    <linearGradient
       inkscape:collect="always"
       xlink:href="#linearGradient1245"
       id="linearGradient2281"
       gradientUnits="userSpaceOnUse"
       gradientTransform="rotate(60,127.93659,80.987883)"
       x1="121.07422"
       y1="51.275391"
       x2="143.37305"
       y2="89.876953" />
    <linearGradient
       inkscape:collect="always"
       xlink:href="#linearGradient1245"
       id="linearGradient2283"
       gradientUnits="userSpaceOnUse"
       gradientTransform="rotate(120,127.93659,80.987868)"
       x1="121.07422"
       y1="51.275391"
       x2="143.37305"
       y2="89.876953" />
    <linearGradient
       inkscape:collect="always"
       xlink:href="#linearGradient1245"
       id="linearGradient2285"
       gradientUnits="userSpaceOnUse"
       gradientTransform="rotate(180,127.93658,80.987875)"
       x1="121.07422"
       y1="51.275391"
       x2="143.37305"
       y2="89.876953" />
    <linearGradient
       inkscape:collect="always"
       xlink:href="#linearGradient1245"
       id="linearGradient2287"
       gradientUnits="userSpaceOnUse"
       gradientTransform="rotate(-120,127.98799,81.024609)"
       x1="121.07422"
       y1="51.275391"
       x2="143.37305"
       y2="89.876953" />
    <linearGradient
       inkscape:collect="always"
       xlink:href="#linearGradient1245"
       id="linearGradient2289"
       gradientUnits="userSpaceOnUse"
       gradientTransform="rotate(-60,128.04549,80.998454)"
       x1="121.07422"
       y1="51.275391"
       x2="143.37305"
       y2="89.876953" />
    <linearGradient
       inkscape:collect="always"
       xlink:href="#linearGradient1245"
       id="linearGradient2385"
       gradientUnits="userSpaceOnUse"
       x1="121.07422"
       y1="51.275391"
       x2="143.37305"
       y2="89.876953" />
    <linearGradient
       inkscape:collect="always"
       xlink:href="#linearGradient1245"
       id="linearGradient2387"
       gradientUnits="userSpaceOnUse"
       gradientTransform="rotate(60,127.93659,80.987883)"
       x1="121.07422"
       y1="51.275391"
       x2="143.37305"
       y2="89.876953" />
    <linearGradient
       inkscape:collect="always"
       xlink:href="#linearGradient1245"
       id="linearGradient2389"
       gradientUnits="userSpaceOnUse"
       gradientTransform="rotate(120,127.93659,80.987868)"
       x1="121.07422"
       y1="51.275391"
       x2="143.37305"
       y2="89.876953" />
    <linearGradient
       inkscape:collect="always"
       xlink:href="#linearGradient1245"
       id="linearGradient2391"
       gradientUnits="userSpaceOnUse"
       gradientTransform="rotate(180,127.93658,80.987875)"
       x1="121.07422"
       y1="51.275391"
       x2="143.37305"
       y2="89.876953" />
    <linearGradient
       inkscape:collect="always"
       xlink:href="#linearGradient1245"
       id="linearGradient2393"
       gradientUnits="userSpaceOnUse"
       gradientTransform="rotate(-120,127.98799,81.024609)"
       x1="121.07422"
       y1="51.275391"
       x2="143.37305"
       y2="89.876953" />
    <linearGradient
       inkscape:collect="always"
       xlink:href="#linearGradient1245"
       id="linearGradient2395"
       gradientUnits="userSpaceOnUse"
       gradientTransform="rotate(-60,128.04549,80.998454)"
       x1="121.07422"
       y1="51.275391"
       x2="143.37305"
       y2="89.876953" />
    <linearGradient
       inkscape:collect="always"
       xlink:href="#linearGradient1245"
       id="linearGradient2491"
       gradientUnits="userSpaceOnUse"
       x1="121.07422"
       y1="51.275391"
       x2="143.37305"
       y2="89.876953" />
    <linearGradient
       inkscape:collect="always"
       xlink:href="#linearGradient1245"
       id="linearGradient2493"
       gradientUnits="userSpaceOnUse"
       gradientTransform="rotate(60,127.93659,80.987883)"
       x1="121.07422"
       y1="51.275391"
       x2="143.37305"
       y2="89.876953" />
    <linearGradient
       inkscape:collect="always"
       xlink:href="#linearGradient1245"
       id="linearGradient2495"
       gradientUnits="userSpaceOnUse"
       gradientTransform="rotate(120,127.93659,80.987868)"
       x1="121.07422"
       y1="51.275391"
       x2="143.37305"
       y2="89.876953" />
    <linearGradient
       inkscape:collect="always"
       xlink:href="#linearGradient1245"
       id="linearGradient2497"
       gradientUnits="userSpaceOnUse"
       gradientTransform="rotate(180,127.93658,80.987875)"
       x1="121.07422"
       y1="51.275391"
       x2="143.37305"
       y2="89.876953" />
    <linearGradient
       inkscape:collect="always"
       xlink:href="#linearGradient1245"
       id="linearGradient2499"
       gradientUnits="userSpaceOnUse"
       gradientTransform="rotate(-120,127.98799,81.024609)"
       x1="121.07422"
       y1="51.275391"
       x2="143.37305"
       y2="89.876953" />
    <linearGradient
       inkscape:collect="always"
       xlink:href="#linearGradient1245"
       id="linearGradient2501"
       gradientUnits="userSpaceOnUse"
       gradientTransform="rotate(-60,128.04549,80.998454)"
       x1="121.07422"
       y1="51.275391"
       x2="143.37305"
       y2="89.876953" />
  </defs>
  <sodipodi:namedview
     id="namedview35"
     pagecolor="#ffffff"
     bordercolor="#999999"
     borderopacity="1"
     inkscape:pageshadow="0"
     inkscape:pageopacity="0"
     inkscape:pagecheckerboard="0"
     showgrid="false"
     inkscape:object-paths="true"
     inkscape:zoom="3.345"
     inkscape:cx="99.850523"
     inkscape:cy="100"
     inkscape:window-width="1280"
     inkscape:window-height="961"
     inkscape:window-x="-8"
     inkscape:window-y="-8"
     inkscape:window-maximized="1"
     inkscape:current-layer="visual" />
  <rect
     width="200"
     height="200"
     fill="none"
     id="rect2" />
  <g
     id="g1851">
    <path
       id="path4"
       style="fill:url(#linearGradient1247);fill-opacity:1;stroke:none"
       d="M 128 47.300781 L 121.07422 51.275391 L 143.37305 64.076172 L 143.37305 89.876953 L 150.30078 85.900391 L 150.30078 60.099609 L 128 47.300781 z " />
    <path
       id="path1825"
       style="fill:url(#linearGradient1827);fill-opacity:1;stroke:none"
       d="m 157.14218,64.199244 -6.905,-4.010597 0.0636,25.711744 -22.34413,12.900391 6.90767,4.011308 22.34413,-12.90039 z" />
    <path
       id="path1829"
       style="fill:url(#linearGradient1835);fill-opacity:1;stroke:none"
       d="m 157.07874,97.886334 0.0208,-7.985207 -22.23522,12.910963 -22.34413,-12.900391 -0.0201,7.987872 22.34413,12.900389 z" />
    <path
       id="path1831"
       style="fill:url(#linearGradient1833);fill-opacity:1;stroke:none"
       d="m 127.87316,114.67497 6.92578,-3.97461 -22.29883,-12.800789 v -25.80078 l -6.92773,3.976564 v 25.800775 z" />
    <path
       id="path1837"
       style="fill:url(#linearGradient1843);fill-opacity:1;stroke:none"
       d="m 98.7763,97.87611 6.90499,4.01061 -0.0636,-25.711745 22.34413,-12.900389 -6.90765,-4.011343 -22.34413,12.90039 z" />
    <path
       id="path1839"
       style="fill:url(#linearGradient1841);fill-opacity:1;stroke:none"
       d="m 98.8397,64.189013 -0.0208,7.985206 22.23522,-12.910958 22.34413,12.90039 0.0201,-7.987873 -22.34413,-12.900387 z" />
  </g>
  <g
     id="g1865"
     transform="matrix(0.41558942,0,0,0.41558942,4.9028348,71.756845)">
    <path
       id="path1853"
       style="fill:url(#linearGradient1867);fill-opacity:1;stroke:none"
       d="m 128,47.300781 -6.92578,3.97461 22.29883,12.800781 v 25.800781 l 6.92773,-3.976562 V 60.099609 Z" />
    <path
       id="path1855"
       style="fill:url(#linearGradient1869);fill-opacity:1;stroke:none"
       d="m 157.14218,64.199244 -6.905,-4.010597 0.0636,25.711744 -22.34413,12.900391 6.90767,4.011308 22.34413,-12.90039 z" />
    <path
       id="path1857"
       style="fill:url(#linearGradient1871);fill-opacity:1;stroke:none"
       d="m 157.07874,97.886334 0.0208,-7.985207 -22.23522,12.910963 -22.34413,-12.900391 -0.0201,7.987872 22.34413,12.900389 z" />
    <path
       id="path1859"
       style="fill:url(#linearGradient1873);fill-opacity:1;stroke:none"
       d="m 127.87316,114.67497 6.92578,-3.97461 -22.29883,-12.800789 v -25.80078 l -6.92773,3.976564 v 25.800775 z" />
    <path
       id="path1861"
       style="fill:url(#linearGradient1875);fill-opacity:1;stroke:none"
       d="m 98.7763,97.87611 6.90499,4.01061 -0.0636,-25.711745 22.34413,-12.900389 -6.90765,-4.011343 -22.34413,12.90039 z" />
    <path
       id="path1863"
       style="fill:url(#linearGradient1877);fill-opacity:1;stroke:none"
       d="m 98.8397,64.189013 -0.0208,7.985206 22.23522,-12.910958 22.34413,12.90039 0.0201,-7.987873 -22.34413,-12.900387 z" />
  </g>
  <g
     id="g1971"
     transform="matrix(0.33382209,0,0,0.33382209,37.284377,136.96446)">
    <path
       id="path1959"
       style="fill:url(#linearGradient1973);fill-opacity:1;stroke:none"
       d="m 128,47.300781 -6.92578,3.97461 22.29883,12.800781 v 25.800781 l 6.92773,-3.976562 V 60.099609 Z" />
    <path
       id="path1961"
       style="fill:url(#linearGradient1975);fill-opacity:1;stroke:none"
       d="m 157.14218,64.199244 -6.905,-4.010597 0.0636,25.711744 -22.34413,12.900391 6.90767,4.011308 22.34413,-12.90039 z" />
    <path
       id="path1963"
       style="fill:url(#linearGradient1977);fill-opacity:1;stroke:none"
       d="m 157.07874,97.886334 0.0208,-7.985207 -22.23522,12.910963 -22.34413,-12.900391 -0.0201,7.987872 22.34413,12.900389 z" />
    <path
       id="path1965"
       style="fill:url(#linearGradient1979);fill-opacity:1;stroke:none"
       d="m 127.87316,114.67497 6.92578,-3.97461 -22.29883,-12.800789 v -25.80078 l -6.92773,3.976564 v 25.800775 z" />
    <path
       id="path1967"
       style="fill:url(#linearGradient1981);fill-opacity:1;stroke:none"
       d="m 98.7763,97.87611 6.90499,4.01061 -0.0636,-25.711745 22.34413,-12.900389 -6.90765,-4.011343 -22.34413,12.90039 z" />
    <path
       id="path1969"
       style="fill:url(#linearGradient1983);fill-opacity:1;stroke:none"
       d="m 98.8397,64.189013 -0.0208,7.985206 22.23522,-12.910958 22.34413,12.90039 0.0201,-7.987873 -22.34413,-12.900387 z" />
  </g>
  <g
     id="g2077"
     transform="matrix(0.56890315,0,0,0.56890315,57.203582,95.925744)">
    <path
       id="path2065"
       style="fill:url(#linearGradient2079);fill-opacity:1;stroke:none"
       d="m 128,47.300781 -6.92578,3.97461 22.29883,12.800781 v 25.800781 l 6.92773,-3.976562 V 60.099609 Z" />
    <path
       id="path2067"
       style="fill:url(#linearGradient2081);fill-opacity:1;stroke:none"
       d="m 157.14218,64.199244 -6.905,-4.010597 0.0636,25.711744 -22.34413,12.900391 6.90767,4.011308 22.34413,-12.90039 z" />
    <path
       id="path2069"
       style="fill:url(#linearGradient2083);fill-opacity:1;stroke:none"
       d="m 157.07874,97.886334 0.0208,-7.985207 -22.23522,12.910963 -22.34413,-12.900391 -0.0201,7.987872 22.34413,12.900389 z" />
    <path
       id="path2071"
       style="fill:url(#linearGradient2085);fill-opacity:1;stroke:none"
       d="m 127.87316,114.67497 6.92578,-3.97461 -22.29883,-12.800789 v -25.80078 l -6.92773,3.976564 v 25.800775 z" />
    <path
       id="path2073"
       style="fill:url(#linearGradient2087);fill-opacity:1;stroke:none"
       d="m 98.7763,97.87611 6.90499,4.01061 -0.0636,-25.711745 22.34413,-12.900389 -6.90765,-4.011343 -22.34413,12.90039 z" />
    <path
       id="path2075"
       style="fill:url(#linearGradient2089);fill-opacity:1;stroke:none"
       d="m 98.8397,64.189013 -0.0208,7.985206 22.23522,-12.910958 22.34413,12.90039 0.0201,-7.987873 -22.34413,-12.900387 z" />
  </g>
  <g
     id="g2277"
     transform="matrix(0.2717011,0,0,0.2717011,26.233332,18.995505)">
    <path
       id="path2265"
       style="fill:url(#linearGradient2279);fill-opacity:1;stroke:none"
       d="m 128,47.300781 -6.92578,3.97461 22.29883,12.800781 v 25.800781 l 6.92773,-3.976562 V 60.099609 Z" />
    <path
       id="path2267"
       style="fill:url(#linearGradient2281);fill-opacity:1;stroke:none"
       d="m 157.14218,64.199244 -6.905,-4.010597 0.0636,25.711744 -22.34413,12.900391 6.90767,4.011308 22.34413,-12.90039 z" />
    <path
       id="path2269"
       style="fill:url(#linearGradient2283);fill-opacity:1;stroke:none"
       d="m 157.07874,97.886334 0.0208,-7.985207 -22.23522,12.910963 -22.34413,-12.900391 -0.0201,7.987872 22.34413,12.900389 z" />
    <path
       id="path2271"
       style="fill:url(#linearGradient2285);fill-opacity:1;stroke:none"
       d="m 127.87316,114.67497 6.92578,-3.97461 -22.29883,-12.800789 v -25.80078 l -6.92773,3.976564 v 25.800775 z" />
    <path
       id="path2273"
       style="fill:url(#linearGradient2287);fill-opacity:1;stroke:none"
       d="m 98.7763,97.87611 6.90499,4.01061 -0.0636,-25.711745 22.34413,-12.900389 -6.90765,-4.011343 -22.34413,12.90039 z" />
    <path
       id="path2275"
       style="fill:url(#linearGradient2289);fill-opacity:1;stroke:none"
       d="m 98.8397,64.189013 -0.0208,7.985206 22.23522,-12.910958 22.34413,12.90039 0.0201,-7.987873 -22.34413,-12.900387 z" />
  </g>
  <g
     id="g2383"
     transform="matrix(0.13882919,0,0,0.13882919,11.235521,159.75652)">
    <path
       id="path2371"
       style="fill:url(#linearGradient2385);fill-opacity:1;stroke:none"
       d="m 128,47.300781 -6.92578,3.97461 22.29883,12.800781 v 25.800781 l 6.92773,-3.976562 V 60.099609 Z" />
    <path
       id="path2373"
       style="fill:url(#linearGradient2387);fill-opacity:1;stroke:none"
       d="m 157.14218,64.199244 -6.905,-4.010597 0.0636,25.711744 -22.34413,12.900391 6.90767,4.011308 22.34413,-12.90039 z" />
    <path
       id="path2375"
       style="fill:url(#linearGradient2389);fill-opacity:1;stroke:none"
       d="m 157.07874,97.886334 0.0208,-7.985207 -22.23522,12.910963 -22.34413,-12.900391 -0.0201,7.987872 22.34413,12.900389 z" />
    <path
       id="path2377"
       style="fill:url(#linearGradient2391);fill-opacity:1;stroke:none"
       d="m 127.87316,114.67497 6.92578,-3.97461 -22.29883,-12.800789 v -25.80078 l -6.92773,3.976564 v 25.800775 z" />
    <path
       id="path2379"
       style="fill:url(#linearGradient2393);fill-opacity:1;stroke:none"
       d="m 98.7763,97.87611 6.90499,4.01061 -0.0636,-25.711745 22.34413,-12.900389 -6.90765,-4.011343 -22.34413,12.90039 z" />
    <path
       id="path2381"
       style="fill:url(#linearGradient2395);fill-opacity:1;stroke:none"
       d="m 98.8397,64.189013 -0.0208,7.985206 22.23522,-12.910958 22.34413,12.90039 0.0201,-7.987873 -22.34413,-12.900387 z" />
  </g>
  <g
     id="g2489"
     transform="matrix(0.34294101,0,0,0.34294101,124.11753,10.225936)">
    <path
       id="path2477"
       style="fill:url(#linearGradient2491);fill-opacity:1;stroke:none"
       d="m 128,47.300781 -6.92578,3.97461 22.29883,12.800781 v 25.800781 l 6.92773,-3.976562 V 60.099609 Z" />
    <path
       id="path2479"
       style="fill:url(#linearGradient2493);fill-opacity:1;stroke:none"
       d="m 157.14218,64.199244 -6.905,-4.010597 0.0636,25.711744 -22.34413,12.900391 6.90767,4.011308 22.34413,-12.90039 z" />
    <path
       id="path2481"
       style="fill:url(#linearGradient2495);fill-opacity:1;stroke:none"
       d="m 157.07874,97.886334 0.0208,-7.985207 -22.23522,12.910963 -22.34413,-12.900391 -0.0201,7.987872 22.34413,12.900389 z" />
    <path
       id="path2483"
       style="fill:url(#linearGradient2497);fill-opacity:1;stroke:none"
       d="m 127.87316,114.67497 6.92578,-3.97461 -22.29883,-12.800789 v -25.80078 l -6.92773,3.976564 v 25.800775 z" />
    <path
       id="path2485"
       style="fill:url(#linearGradient2499);fill-opacity:1;stroke:none"
       d="m 98.7763,97.87611 6.90499,4.01061 -0.0636,-25.711745 22.34413,-12.900389 -6.90765,-4.011343 -22.34413,12.90039 z" />
    <path
       id="path2487"
       style="fill:url(#linearGradient2501);fill-opacity:1;stroke:none"
       d="m 98.8397,64.189013 -0.0208,7.985206 22.23522,-12.910958 22.34413,12.90039 0.0201,-7.987873 -22.34413,-12.900387 z" />
  </g>
</svg>
