<?xml version="1.0" encoding="UTF-8" standalone="no"?>
<svg
   id="visual"
   viewBox="0 0 200 200"
   width="200"
   height="200"
   version="1.1"
   sodipodi:docname="deco_2.svg"
   inkscape:version="1.1 (c68e22c387, 2021-05-23)"
   xmlns:inkscape="http://www.inkscape.org/namespaces/inkscape"
   xmlns:sodipodi="http://sodipodi.sourceforge.net/DTD/sodipodi-0.dtd"
   xmlns="http://www.w3.org/2000/svg"
   xmlns:svg="http://www.w3.org/2000/svg">
  <defs
     id="defs15" />
  <sodipodi:namedview
     id="namedview13"
     pagecolor="#ffffff"
     bordercolor="#999999"
     borderopacity="1"
     inkscape:pageshadow="0"
     inkscape:pageopacity="0"
     inkscape:pagecheckerboard="0"
     showgrid="false"
     inkscape:zoom="3.345"
     inkscape:cx="99.850523"
     inkscape:cy="100"
     inkscape:window-width="1280"
     inkscape:window-height="961"
     inkscape:window-x="-8"
     inkscape:window-y="-8"
     inkscape:window-maximized="1"
     inkscape:current-layer="visual" />
  <g
     id="g1278">
    <path
       id="circle2"
       style="fill:#4717f6;stroke:none;stroke-width:2;fill-opacity:1"
       d="M 92 51 A 39 39 0 0 0 53 90 A 39 39 0 0 0 92 129 A 39 39 0 0 0 94.601562 128.81445 A 33.797688 33.797688 0 0 1 63.404297 95.203125 A 33.797688 33.797688 0 0 1 97.203125 61.404297 A 33.797688 33.797688 0 0 1 130.85156 92.076172 A 39 39 0 0 0 131 90 A 39 39 0 0 0 92 51 z " />
    <path
       id="path1046"
       style="fill:#8776da;fill-opacity:1;stroke:none;stroke-width:2"
       d="m 76.773349,72.761977 a 23,23 0 0 0 -3.687295,30.295003 19.098267,19.098267 0 0 1 3.341956,-24.787073 19.098267,19.098267 0 0 1 26.9567,1.68876 19.098267,19.098267 0 0 1 -1.69152,26.956533 19.098267,19.098267 0 0 1 -25.010374,0.21973 23,23 0 0 0 30.518304,0.12561 23,23 0 0 0 2.03539,-32.463173 23,23 0 0 0 -32.463161,-2.03539 z" />
    <path
       id="path1048"
       style="fill:#e8bdff;fill-opacity:1;stroke:none;stroke-width:2"
       d="m 106.34412,94.418728 a 11.387283,11.387283 0 0 1 -13.788047,7.515612 11.387283,11.387283 0 0 1 -8.05351,-13.946342 11.387283,11.387283 0 0 1 13.94771,-8.05112 11.387283,11.387283 0 0 1 8.360897,12.34637 15,15 0 0 0 -10.915867,-16.77171 15,15 0 0 0 -18.37117,10.6066 15,15 0 0 0 10.6066,18.371172 15,15 0 0 0 18.213387,-10.070582 z" />
  </g>
  <g
     id="g1366"
     transform="matrix(0.08955565,0.33422625,-0.33422625,0.08955565,63.841242,119.09688)">
    <path
       id="path1360"
       style="fill:#4717f6;fill-opacity:1;stroke:none;stroke-width:2"
       d="M 92,51 A 39,39 0 0 0 53,90 39,39 0 0 0 92,129 39,39 0 0 0 94.601562,128.81445 33.797688,33.797688 0 0 1 63.404297,95.203125 33.797688,33.797688 0 0 1 97.203125,61.404297 33.797688,33.797688 0 0 1 130.85156,92.076172 39,39 0 0 0 131,90 39,39 0 0 0 92,51 Z" />
    <path
       id="path1362"
       style="fill:#8776da;fill-opacity:1;stroke:none;stroke-width:2"
       d="m 76.773349,72.761977 a 23,23 0 0 0 -3.687295,30.295003 19.098267,19.098267 0 0 1 3.341956,-24.787073 19.098267,19.098267 0 0 1 26.9567,1.68876 19.098267,19.098267 0 0 1 -1.69152,26.956533 19.098267,19.098267 0 0 1 -25.010374,0.21973 23,23 0 0 0 30.518304,0.12561 23,23 0 0 0 2.03539,-32.463173 23,23 0 0 0 -32.463161,-2.03539 z" />
    <path
       id="path1364"
       style="fill:#e8bdff;fill-opacity:1;stroke:none;stroke-width:2"
       d="m 106.34412,94.418728 a 11.387283,11.387283 0 0 1 -13.788047,7.515612 11.387283,11.387283 0 0 1 -8.05351,-13.946342 11.387283,11.387283 0 0 1 13.94771,-8.05112 11.387283,11.387283 0 0 1 8.360897,12.34637 15,15 0 0 0 -10.915867,-16.77171 15,15 0 0 0 -18.37117,10.6066 15,15 0 0 0 10.6066,18.371172 15,15 0 0 0 18.213387,-10.070582 z" />
  </g>
  <g
     id="g1454"
     transform="matrix(-0.39439656,0.45080497,-0.45080497,-0.39439656,229.72196,137.17747)">
    <path
       id="path1448"
       style="fill:#4717f6;fill-opacity:1;stroke:none;stroke-width:2"
       d="M 92,51 A 39,39 0 0 0 53,90 39,39 0 0 0 92,129 39,39 0 0 0 94.601562,128.81445 33.797688,33.797688 0 0 1 63.404297,95.203125 33.797688,33.797688 0 0 1 97.203125,61.404297 33.797688,33.797688 0 0 1 130.85156,92.076172 39,39 0 0 0 131,90 39,39 0 0 0 92,51 Z" />
    <path
       id="path1450"
       style="fill:#8776da;fill-opacity:1;stroke:none;stroke-width:2"
       d="m 76.773349,72.761977 a 23,23 0 0 0 -3.687295,30.295003 19.098267,19.098267 0 0 1 3.341956,-24.787073 19.098267,19.098267 0 0 1 26.9567,1.68876 19.098267,19.098267 0 0 1 -1.69152,26.956533 19.098267,19.098267 0 0 1 -25.010374,0.21973 23,23 0 0 0 30.518304,0.12561 23,23 0 0 0 2.03539,-32.463173 23,23 0 0 0 -32.463161,-2.03539 z" />
    <path
       id="path1452"
       style="fill:#e8bdff;fill-opacity:1;stroke:none;stroke-width:2"
       d="m 106.34412,94.418728 a 11.387283,11.387283 0 0 1 -13.788047,7.515612 11.387283,11.387283 0 0 1 -8.05351,-13.946342 11.387283,11.387283 0 0 1 13.94771,-8.05112 11.387283,11.387283 0 0 1 8.360897,12.34637 15,15 0 0 0 -10.915867,-16.77171 15,15 0 0 0 -18.37117,10.6066 15,15 0 0 0 10.6066,18.371172 15,15 0 0 0 18.213387,-10.070582 z" />
  </g>
  <g
     id="g1542"
     transform="matrix(-0.23571144,-0.36916942,0.36916942,-0.23571144,148.1373,97.276466)">
    <path
       id="path1536"
       style="fill:#4717f6;fill-opacity:1;stroke:none;stroke-width:2"
       d="M 92,51 A 39,39 0 0 0 53,90 39,39 0 0 0 92,129 39,39 0 0 0 94.601562,128.81445 33.797688,33.797688 0 0 1 63.404297,95.203125 33.797688,33.797688 0 0 1 97.203125,61.404297 33.797688,33.797688 0 0 1 130.85156,92.076172 39,39 0 0 0 131,90 39,39 0 0 0 92,51 Z" />
    <path
       id="path1538"
       style="fill:#8776da;fill-opacity:1;stroke:none;stroke-width:2"
       d="m 76.773349,72.761977 a 23,23 0 0 0 -3.687295,30.295003 19.098267,19.098267 0 0 1 3.341956,-24.787073 19.098267,19.098267 0 0 1 26.9567,1.68876 19.098267,19.098267 0 0 1 -1.69152,26.956533 19.098267,19.098267 0 0 1 -25.010374,0.21973 23,23 0 0 0 30.518304,0.12561 23,23 0 0 0 2.03539,-32.463173 23,23 0 0 0 -32.463161,-2.03539 z" />
    <path
       id="path1540"
       style="fill:#e8bdff;fill-opacity:1;stroke:none;stroke-width:2"
       d="m 106.34412,94.418728 a 11.387283,11.387283 0 0 1 -13.788047,7.515612 11.387283,11.387283 0 0 1 -8.05351,-13.946342 11.387283,11.387283 0 0 1 13.94771,-8.05112 11.387283,11.387283 0 0 1 8.360897,12.34637 15,15 0 0 0 -10.915867,-16.77171 15,15 0 0 0 -18.37117,10.6066 15,15 0 0 0 10.6066,18.371172 15,15 0 0 0 18.213387,-10.070582 z" />
  </g>
</svg>
