<?xml version="1.0" encoding="UTF-8" standalone="no"?>
<svg
   width="120"
   height="120"
   viewBox="0 0 120 120"
   fill="none"
   version="1.1"
   id="svg4"
   sodipodi:docname="bootstrap.svg"
   inkscape:version="1.1.2 (b8e25be833, 2022-02-05)"
   xmlns:inkscape="http://www.inkscape.org/namespaces/inkscape"
   xmlns:sodipodi="http://sodipodi.sourceforge.net/DTD/sodipodi-0.dtd"
   xmlns="http://www.w3.org/2000/svg"
   xmlns:svg="http://www.w3.org/2000/svg">
  <defs
     id="defs8" />
  <sodipodi:namedview
     id="namedview6"
     pagecolor="#ffffff"
     bordercolor="#666666"
     borderopacity="1.0"
     inkscape:pageshadow="2"
     inkscape:pageopacity="0.0"
     inkscape:pagecheckerboard="0"
     showgrid="false"
     inkscape:zoom="7.0666667"
     inkscape:cx="60"
     inkscape:cy="60"
     inkscape:window-width="1920"
     inkscape:window-height="1057"
     inkscape:window-x="-8"
     inkscape:window-y="-8"
     inkscape:window-maximized="1"
     inkscape:current-layer="svg4" />
  <path
     fill-rule="evenodd"
     clip-rule="evenodd"
     d="m 24.9244,12.2035 c -6.8471,0 -11.91355,5.9929 -11.68675,12.4922 0.2176,6.24405 -0.0651,14.33085 -2.10105,20.92575 C 9.0946,52.2355 5.641,56.4255 0,56.9635 v 6.073 c 5.641,0.538 9.0946,4.728 11.1366,11.3425 2.03595,6.5945 2.31865,14.6815 2.10105,20.9255 -0.2268,6.4985 4.83965,12.492 11.68775,12.492 h 70.1591 c 6.8475,0 11.913,-5.9925 11.686,-12.492 -0.2175,-6.244 0.065,-14.331 2.101,-20.9255 2.043,-6.6145 5.4875,-10.8045 11.1285,-11.3425 v -6.073 c -5.641,-0.538 -9.0855,-4.728 -11.1285,-11.34205 -2.036,-6.5939 -2.3185,-14.6817 -2.101,-20.92575 0.227,-6.4983 -4.8385,-12.4922 -11.686,-12.4922 H 24.9234 Z M 81.356,71.047 c 0,8.9495 -6.6755,14.377 -17.753,14.377 H 44.74575 c -0.5394,0 -1.05675,-0.2145 -1.43815,-0.596 -0.38145,-0.3815 -0.59575,-0.8985 -0.59575,-1.438 V 36.6103 c 0,-0.53945 0.2143,-1.05675 0.59575,-1.4382 0.3814,-0.38145 0.89875,-0.5957 1.43815,-0.5957 H 63.4955 c 9.2365,0 15.2985,5.00335 15.2985,12.6854 0,5.3917 -4.0775,10.2192 -9.2735,11.0642 v 0.282 c 7.073,0.776 11.8355,5.6735 11.8355,12.439 z M 61.547,41.02385 H 50.7945 V 56.211 h 9.056 c 7.0005,0 10.861,-2.819 10.861,-7.858 0,-4.7217 -3.3195,-7.32915 -9.1645,-7.32915 z M 50.7945,62.2375 v 16.737 h 11.148 c 7.2885,0 11.1495,-2.925 11.1495,-8.4215 0,-5.4975 -3.969,-8.3165 -11.6185,-8.3165 h -10.679 z"
     fill="#000000"
     id="path2"
     style="stroke-width:1;fill:#8776da;fill-opacity:1" />
</svg>
