<?xml version="1.0" encoding="UTF-8" standalone="no"?>
<svg
   height="120"
   width="120"
   viewBox="-64.85325 -111.279 56.20615 100.1511"
   version="1.1"
   id="svg2813"
   sodipodi:docname="PostgreSQL-Logo.wine.svg"
   inkscape:version="1.2 (dc2aeda, 2022-05-15)"
   xmlns:inkscape="http://www.inkscape.org/namespaces/inkscape"
   xmlns:sodipodi="http://sodipodi.sourceforge.net/DTD/sodipodi-0.dtd"
   xmlns="http://www.w3.org/2000/svg"
   xmlns:svg="http://www.w3.org/2000/svg">
  <defs
     id="defs2817" />
  <sodipodi:namedview
     id="namedview2815"
     pagecolor="#ffffff"
     bordercolor="#999999"
     borderopacity="1"
     inkscape:showpageshadow="0"
     inkscape:pageopacity="0"
     inkscape:pagecheckerboard="0"
     inkscape:deskcolor="#d1d1d1"
     showgrid="false"
     inkscape:zoom="3.5416782"
     inkscape:cx="-2.8235202"
     inkscape:cy="32.752835"
     inkscape:window-width="1920"
     inkscape:window-height="1052"
     inkscape:window-x="0"
     inkscape:window-y="0"
     inkscape:window-maximized="1"
     inkscape:current-layer="svg2813" />
  <path
     style="color:#000000;fill:#8776da;fill-opacity:1;stroke:none"
     d="m -40.805371,-49.40252 c -0.22201,0.0194 -0.54119,0.091 -1.15898,0.78243 a 1.4024502,1.4024502 0 0 0 -0.002,0 c -1.45462,1.62487 -1.96,2.65023 -3.15906,3.6057 -1.19906,0.95547 -2.75705,1.461 -5.8666,2.10115 -1.13064,0.23332 -1.53157,0.46554 -1.86153,0.64062 0.107,0.0818 0.0844,0.0923 0.23147,0.17278 0.45167,0.24713 1.03797,0.46775 1.50781,0.5852 1.3405,0.3359 3.53227,0.72273 5.82258,0.3309 2.29031,-0.39183 4.6733,-1.48731 6.70771,-4.33597 0.34942,-0.48925 0.38823,-1.21918 0.0994,-1.99846 -0.28878,-0.77927 -0.93034,-1.45087 -1.38229,-1.63821 -0.4412,-0.18264 -0.71691,-0.26554 -0.93892,-0.24614 z"
     id="path7765" />
  <path
     style="color:#000000;fill:#8776da;fill-opacity:1;stroke:none"
     d="m -7.07773,-49.88013 c -0.0407,0.0148 -0.0969,0.0713 -0.1353,0.0848 -0.61523,0.21686 -1.1188,0.30656 -1.54204,0.49717 -0.42325,0.19062 -0.72713,0.39915 -0.9976,0.89491 -0.26008,0.47673 -0.46618,1.36222 -0.40588,2.78741 0.0801,0.0602 0.2671,0.17419 0.59823,0.27711 0.7167,0.22275 1.91397,0.35854 3.24546,0.34394 2.66299,-0.0293 5.94018,-0.65192 7.68249,-1.46054 1.71714,-0.79744 2.97703,-1.76882 3.8225,-2.55268 -5.73082,1.16771 -9.01007,0.86544 -11.00619,0.0391 -0.61053,-0.25274 -0.88326,-0.59269 -1.26167,-0.91121 z"
     id="path7763" />
  <path
     id="path7753"
     style="color:#000000;fill:#8776da;fill-opacity:1;stroke:none"
     d="m -45.413962,-82.001874 c -0.8121,-3.6e-4 -1.688971,0.110863 -2.572241,0.314602 -1.766538,0.40749 -3.537008,1.159054 -4.810317,1.868053 -0.636649,0.35449 -1.153647,0.703387 -1.457277,0.950327 -0.0508,0.0413 -0.05032,0.0472 -0.08802,0.0815 0.0209,0.6092 0.141817,2.087929 0.190717,4.264246 0.0535,2.379688 -0.004,5.410832 -0.462938,8.694759 -1.000519,7.154593 4.216128,13.020396 10.323192,12.996496 0.35601,-1.446139 0.886788,-2.911855 1.460537,-4.458224 1.696449,-4.564845 5.030854,-7.890896 2.220147,-20.889263 -0.4591,-2.122668 -1.367374,-2.985896 -2.617882,-3.468775 -0.62526,-0.24143 -1.373816,-0.353354 -2.185915,-0.353724 z m 0.26244,1.55019 c 0.04565,-3.7e-4 0.09202,7.56e-4 0.138555,0.0016 0.22338,0.004 0.456808,0.02375 0.696037,0.05705 0.63876,0.0889 1.202605,0.26678 1.638214,0.51021 0.21781,0.12172 0.407772,0.256867 0.555852,0.436857 0.14811,0.179979 0.261718,0.433688 0.223318,0.709077 -0.0361,0.25902 -0.156432,0.447975 -0.311342,0.640615 -0.154909,0.19264 -0.355633,0.377891 -0.596603,0.541181 -0.481939,0.32659 -1.138193,0.567988 -1.868053,0.466198 -0.730849,-0.101339 -1.329148,-0.509327 -1.750688,-0.951957 -0.21077,-0.221309 -0.378329,-0.453436 -0.497169,-0.682996 -0.11826,-0.22842 -0.210857,-0.445069 -0.171157,-0.735159 v -0.0016 c 10e-5,-0.001 -1.1e-4,-0.0033 0,-0.0033 l 0.05705,-0.399366 h 0.208649 c 0.0584,-0.065 0.07649,-0.170498 0.143445,-0.216798 0.19158,-0.13254 0.409376,-0.214721 0.652026,-0.272221 0.265404,-0.06291 0.562313,-0.09684 0.881864,-0.09943 z" />
  <path
     id="path7751"
     style="color:#000000;fill:#8776da;fill-opacity:1;stroke:none"
     d="m -11.05548,-82.482743 c -2.83153,0.03901 -4.42178,0.774385 -5.2537,1.726238 -1.18317,1.353738 -1.29345,3.732652 -0.56237,6.663699 0.73108,2.931047 2.24182,6.210901 3.66275,8.937638 0.71047,1.363349 1.39715,2.593061 1.95445,3.59266 0.5573,0.999589 0.96533,1.707701 1.2144,2.31143 0.23349,0.566129 0.48865,1.05916 0.74982,1.522479 1.10212,-2.317707 1.28901,-4.600694 1.17202,-6.973411 -0.14453,-2.931157 -0.82408,-5.931073 -0.72538,-8.97024 0.11361,-3.562116 0.8601,-5.846737 0.9161,-8.601844 -0.92297,-0.11392 -1.7902,-0.192919 -2.54453,-0.207019 -0.19994,-0.0037 -0.3948,-0.0042 -0.58356,-0.0016 z m -1.18832,1.331762 c 0.30472,0.0021 0.58562,0.03345 0.8297,0.09128 0.22317,0.0529 0.41703,0.126379 0.57378,0.234729 0.15675,0.10834 0.28415,0.266288 0.31135,0.461308 10e-4,0.0107 -0.009,0.02037 -0.008,0.03097 0.0174,0.19142 -0.0376,0.372362 -0.13856,0.567262 -0.1065,0.20566 -0.26298,0.420965 -0.45968,0.627575 -0.3934,0.413229 -0.95329,0.791894 -1.61376,0.883494 -0.65976,0.0919 -1.26191,-0.129087 -1.70668,-0.430337 -0.22238,-0.15063 -0.40594,-0.321829 -0.54444,-0.493909 -0.1385,-0.17208 -0.23777,-0.338231 -0.26407,-0.52488 v -0.0016 c -0.0265,-0.19505 0.0547,-0.381061 0.17605,-0.528141 0.12129,-0.14709 0.28875,-0.271165 0.48902,-0.383065 0.40054,-0.22379 0.94295,-0.393739 1.55671,-0.479239 0.23016,-0.0321 0.45327,-0.04979 0.66669,-0.05379 0.0445,-8.75e-4 0.0885,-0.0019 0.13204,-0.0016 z" />
  <path
     style="color:#000000;fill:#8776da;fill-opacity:1;stroke:none"
     d="m -62.795151,-104.52148 c -0.52842,3e-4 -1.05752,0.0138 -1.58442,0.044 -4.21523,0.24172 -8.19885,1.46378 -11.0502,4.4843 -2.85135,3.02053 -4.72978,7.97759 -4.31967,16.17675 0.0776,1.55079 0.75619,5.90212 1.91369,11.06813 1.1575,5.16602 2.79339,11.24584 4.76794,16.61687 1.97454,5.37101 4.36037,10.04139 6.63599,12.25318 1.1378,1.10591 2.13153,1.55273 3.03518,1.51433 0.90315,-0.0383 1.99351,-0.5619 3.32207,-2.1582 3.7294,-4.48669 6.6598,-7.60668 7.58142,-8.58065 -3.53292,-2.97628 -5.63883,-7.82031 -4.89834,-13.1155 0.43049,-3.08084 0.48979,-5.96318 0.43849,-8.24323 -0.0504,-2.24319 -0.2108,-3.77389 -0.21028,-4.69295 a 1.40231,1.40231 0 0 1 -0.002,-0.005 c 0,0 2e-5,-0.0366 0,-0.0375 2e-5,-0.003 -2e-5,-0.007 0,-0.01 2e-5,-0.003 -3e-5,-0.005 0,-0.008 -0.004,-0.1585 -0.17647,-7.07388 2.46955,-14.08538 1.17397,-3.11085 2.9174,-6.26264 5.52754,-8.82189 -2.8515,-0.93131 -8.18663,-2.40246 -13.62733,-2.39946 z"
     id="path7749" />
  <path
     style="color:#000000;fill:#8776da;fill-opacity:1;stroke:none"
     d="m -34.591791,-104.74154 c -5.18689,-0.0851 -8.86864,1.42952 -11.63702,3.73448 -2.76839,2.30494 -4.62124,5.46282 -5.84215,8.69801 -1.42401,3.77336 -1.95518,7.55348 -2.15984,10.08194 0.0241,-0.0136 0.0457,-0.0272 0.0701,-0.0408 1.49082,-0.83012 3.44858,-1.67163 5.54385,-2.15494 1.04763,-0.24166 2.13614,-0.39827 3.21774,-0.39774 1.08161,5.3e-4 2.15674,0.159 3.18026,0.55422 2.04703,0.79045 3.73678,2.66111 4.34901,5.49169 2.93848,13.58933 -0.91254,18.64382 -2.33099,22.46064 -0.59532,1.60449 -1.10272,3.02239 -1.39534,4.21208 0.18384,-0.047 0.36683,-0.0787 0.5477,-0.0945 1.00171,-0.0874 1.78957,0.25517 2.25601,0.44827 1.42666,0.59138 2.41062,1.83379 2.93738,3.25523 0.15064,0.40649 0.25976,0.84038 0.31786,1.28613 a 1.40231,1.40231 0 0 1 0.0603,0.42544 c -0.15498,5.54105 -0.13417,11.10686 0.0587,15.59971 0.0964,2.24643 0.23653,4.22678 0.41566,5.78509 0.17913,1.55833 0.43645,2.74055 0.59661,3.14114 0.53372,1.33408 1.314251,3.08202 2.725461,4.27076 1.41122,1.18874 3.43219,1.98047 7.1299,1.18832 3.20596,-0.68731 5.1838,-1.64508 6.50395,-3.01725 1.32017,-1.37217 2.1082,-3.28277 2.613,-6.21054 0.75487,-4.37399 2.27112,-17.0381 2.4565,-19.46296 -0.0847,-1.80888 0.18431,-3.19887 0.76287,-4.25935 0.59443,-1.08957 1.51097,-1.75101 2.30654,-2.10931 0.4649,-0.20937 0.69506,-0.24911 1.02857,-0.34231 -0.21922,-0.35398 -0.38392,-0.65245 -0.97478,-1.39859 -0.8491,-1.07226 -1.92991,-2.53012 -2.77763,-4.58537 -0.0905,-0.21937 -0.51851,-1.01966 -1.07421,-2.01639 -0.55571,-0.99673 -1.25654,-2.25141 -1.9903,-3.65949 -1.46752,-2.81618 -3.06679,-6.23153 -3.89586,-9.55544 -0.82906,-3.32389 -0.95058,-6.76007 1.17202,-9.18866 1.87351,-2.14359 5.23159,-2.96083 10.14551,-2.47444 -0.14522,-0.45498 -0.24357,-0.83677 -0.50043,-1.45402 -0.82908,-1.99232 -2.24927,-4.68279 -4.34574,-7.36299 -4.19297,-5.36044 -10.98163,-10.67609 -21.471201,-10.84807 z"
     id="path7747" />
  <path
     style="color:#000000;fill:#8776da;fill-opacity:1;stroke:none"
     d="m -15.69284,-105.80923 c -2.77978,0.0258 -5.239,0.39131 -7.12337,0.78243 5.21205,2.30001 9.13509,5.86677 11.90435,9.40709 2.27728,2.91136 3.80497,5.79959 4.72555,8.01176 0.46028,1.10609 0.76795,2.03621 0.94381,2.7597 0.0879,0.36174 0.14714,0.66125 0.16464,0.98619 0.009,0.16246 0.0198,0.3243 -0.0473,0.60312 -0.002,0.006 -0.005,0.0152 -0.007,0.0212 0.13446,3.68683 -0.79781,6.15074 -0.90958,9.65487 a 1.4024502,1.4024502 0 0 0 0,0.002 c -0.0822,2.52912 0.56548,5.49916 0.72538,8.74203 0.15041,3.05034 -0.19825,6.40139 -2.18428,9.69236 0.1577,0.19349 0.3161,0.38452 0.46945,0.57052 5.22543,-8.23935 8.99609,-17.35429 11.00293,-25.12417 1.08083,-4.18462 1.65539,-7.97761 1.70179,-10.98174 0.0464,-3.00412 -0.51636,-5.18447 -1.22744,-6.09318 -5.7819,-7.38807 -13.66858,-9.0939 -20.13943,-9.0338 z"
     id="path7745" />
  <path
     style="color:#000000;fill:#8776da;fill-opacity:1;stroke:none"
     d="m -25.90192,-106.24934 a 1.40231,1.40231 0 0 1 0.0799,0.0978 c 0.0108,0.004 0.0218,0.007 0.0326,0.01 0.002,-0.0214 0.005,-0.0489 0.005,-0.0489 2e-5,0 -0.0963,-0.0484 -0.11737,-0.0587 z"
     id="path7743" />
  <path
     style="color:#000000;fill:#8776da;fill-opacity:1;stroke:none"
     d="m -26.96961,-106.77096 c 8.2e-4,0 -0.16407,0.0168 -0.19887,0.0228 -0.0349,0.007 -0.0535,0.009 -0.0685,0.013 -0.0602,0.014 -0.0562,0.014 -0.0522,0.013 a 1.40231,1.40231 0 0 1 0.51347,0.0473 c -0.053,-0.026 -0.19412,-0.0962 -0.19398,-0.0962 z"
     id="path7741" />
  <path
     id="path7769"
     style="color:#000000;fill:#8776da;fill-opacity:1;stroke:none"
     d="m -14.83397,-111.27618 c -3.70122,-0.0442 -6.93725,0.4391 -9.31418,0.94707 -1.18848,0.25398 -2.15992,0.51406 -2.87381,0.72701 -0.16381,0.0489 -0.26754,0.0854 -0.40425,0.12877 -2.18181,-0.37826 -4.43765,-0.69211 -6.99297,-0.73353 h -0.002 c -4.95253,-0.081 -9.16677,1.16401 -12.58083,3.18352 -2.57117,-0.97811 -9.23271,-3.31459 -17.6161,-2.85914 -5.10053,0.2771 -10.68517,1.83545 -14.81076,6.19588 -4.12558,4.360401 -6.30293,11.110911 -5.84377,20.291022 0.12669,2.533337 0.84408,6.665033 2.04247,12.013568 1.19839,5.348544 2.87596,11.61358 4.97658,17.327574 2.10062,5.713975 4.40137,10.847912 7.99383,14.339669 1.79623,1.745878 4.26431,3.21769 7.18206,3.09386 2.07133,-0.0879 3.85153,-1.139668 5.46234,-2.484216 0.78671,1.052738 1.61532,1.6476 2.38153,2.06692 0.95261,0.52134 1.88006,0.866873 2.83957,1.106813 1.72354,0.43103 4.67227,1.006876 8.12912,0.415666 1.17781,-0.201439 2.41312,-0.634646 3.64971,-1.185056 0.0482,1.397839 0.10098,2.765533 0.15649,4.150142 0.17341,4.320155 0.27825,8.313103 1.57627,11.81633 0.21022,0.567289 0.78074,3.517171 3.03355,6.119258 2.25281,2.602098 6.67139,4.227122 11.7006,3.149283 3.54305,-0.759269 8.05934,-2.130003 11.05346,-6.393109 2.9554,-4.207996 4.28686,-10.252139 4.55439,-20.01555 0.0814,-0.660249 0.1674,-0.964627 0.26733,-1.455646 l 0.67159,0.05868 0.0897,0.0049 c 3.78401,0.17217 7.88956,-0.368108 11.31916,-1.960966 3.03861,-1.409929 5.33653,-2.833301 7.00928,-5.356389 0.41818,-0.630779 0.87783,-1.382756 1.00249,-2.684714 0.12466,-1.301939 -0.61899,-3.335948 -1.85991,-4.278917 -2.48182,-1.885958 -4.0439,-1.170812 -5.71989,-0.824812 -2.30781,0.47594 -3.84119,0.559482 -5.07928,0.572152 4.8209,-8.123922 8.35153,-16.719346 10.3232,-24.353148 1.16492,-4.510316 1.82024,-8.665263 1.8762,-12.300459 0.056,-3.635206 -0.23957,-6.852704 -2.41739,-9.635295 -6.80479,-8.69498 -16.37369,-11.0988 -23.7761,-11.18713 z m -0.88676,2.66189 c 7.00246,-0.0651 15.95245,1.90394 22.37426,10.109653 a 1.4024502,1.4024502 0 0 0 0,0.0016 c 1.44429,1.845728 1.87533,4.543809 1.82404,7.863426 -0.0513,3.319636 -0.66529,7.292757 -1.78818,11.640283 -2.17921,8.437212 -6.29421,18.264193 -12.08855,27.080245 0.14516,0.109139 0.35345,0.233664 0.65528,0.358614 1.20713,0.499699 3.96987,0.93006 9.4723,-0.205388 1.38504,-0.28606 2.40074,-0.491808 3.4541,0.309712 0.52669,0.400759 0.8204,1.200069 0.7645,1.780029 -0.0558,0.579949 -0.28254,1.001945 -0.5477,1.401854 -1.06067,1.599669 -3.16139,3.114922 -5.85029,4.36368 -2.38529,1.107029 -5.79959,1.688047 -8.83332,1.721347 -1.51686,0.0167 -2.91945,-0.101248 -4.10939,-0.471088 -0.0167,-0.005 -0.0322,-0.01293 -0.0489,-0.01793 -0.49794,4.656906 -1.57275,13.331891 -2.2283,17.130337 -0.55405,3.213367 -1.51348,5.763881 -3.35467,7.677599 -1.84118,1.913719 -4.43804,3.06717 -7.93841,3.817609 -4.32956,0.927509 -7.48897,-0.0736 -9.52446,-1.78818 -2.03549,-1.714598 -2.96712,-3.98023 -3.5242,-5.372689 -0.38488,-0.962689 -0.5867,-2.203082 -0.77754,-3.86325 -0.19083,-1.660179 -0.33193,-3.692265 -0.43033,-5.983963 -0.13424,-3.126897 -0.17904,-6.747523 -0.14834,-10.502499 -2.04141,1.844758 -4.3302,2.780083 -6.45016,3.142762 -2.8737,0.49163 -5.44277,0.01011 -6.97504,-0.373284 -0.71468,-0.17865 -1.47072,-0.461824 -2.17288,-0.846003 -0.70214,-0.38418 -1.38031,-0.815446 -1.83545,-1.659405 -0.22773,-0.421989 -0.36785,-1.011742 -0.23473,-1.589312 0.13312,-0.577569 0.49596,-1.046614 0.90958,-1.383924 0.82725,-0.674619 1.91813,-1.045104 3.56984,-1.385554 2.99671,-0.616929 4.0428,-1.040251 4.6848,-1.55182 0.57082,-0.45485 1.0934,-1.284807 2.3261,-2.718946 0.004,-0.0427 0.0113,-0.0859 0.008,-0.128775 -1.99844,-0.0351 -3.90014,-0.558048 -5.60253,-1.457277 -0.56592,0.59472 -3.8321,4.040427 -7.7754,8.784412 a 1.4024502,1.4024502 0 0 0 -0.002,0.0016 c -1.63446,1.964918 -3.44892,3.084484 -5.35965,3.165584 -1.91073,0.0811 -3.63995,-0.877371 -5.10699,-2.30328 -2.93405,-2.851797 -5.27973,-7.753853 -7.31735,-13.296428 -2.03761,-5.542594 -3.69428,-11.714856 -4.87226,-16.972221 -1.17798,-5.257344 -1.87678,-9.498741 -1.9789,-11.540849 -0.43465,-8.689941 1.59654,-14.54585 5.08417,-18.240411 3.48763,-3.69453 8.27058,-5.09247 12.92966,-5.35964 8.36827,-0.47988 16.31257,2.43953 17.92092,3.06615 3.09686,-2.10582 7.08778,-3.41518 12.07062,-3.33348 2.52179,0.0413 4.84946,0.37459 7.0109,0.9112 10e-4,-0.001 0.002,-6.3e-4 0.003,-0.002 0.0397,-0.0195 0.0612,-0.0269 0.0815,-0.0359 0.0406,-0.0174 0.0707,-0.0295 0.10432,-0.0424 0.13457,-0.0515 0.31832,-0.116 0.58193,-0.2005 0.52722,-0.16896 1.34381,-0.40604 2.3962,-0.65203 2.10474,-0.49196 5.14791,-1.01726 8.64911,-1.04976 z" />
</svg>
