<?xml version="1.0" encoding="UTF-8" standalone="no"?>
<!-- Created with Inkscape (http://www.inkscape.org/) -->

<svg
   width="120"
   height="120"
   viewBox="0 0 31.75 31.75"
   version="1.1"
   id="svg5"
   inkscape:version="1.1 (c68e22c387, 2021-05-23)"
   sodipodi:docname="Python_logo.svg"
   xmlns:inkscape="http://www.inkscape.org/namespaces/inkscape"
   xmlns:sodipodi="http://sodipodi.sourceforge.net/DTD/sodipodi-0.dtd"
   xmlns="http://www.w3.org/2000/svg"
   xmlns:svg="http://www.w3.org/2000/svg">
  <sodipodi:namedview
     id="namedview7"
     pagecolor="#ffffff"
     bordercolor="#999999"
     borderopacity="1"
     inkscape:pageshadow="0"
     inkscape:pageopacity="0"
     inkscape:pagecheckerboard="0"
     inkscape:document-units="px"
     showgrid="false"
     inkscape:zoom="4.3251365"
     inkscape:cx="68.437146"
     inkscape:cy="69.477576"
     inkscape:window-width="1280"
     inkscape:window-height="961"
     inkscape:window-x="-8"
     inkscape:window-y="-8"
     inkscape:window-maximized="1"
     inkscape:current-layer="layer1" />
  <defs
     id="defs2" />
  <g
     inkscape:label="Camada 1"
     inkscape:groupmode="layer"
     id="layer1">
    <path
       id="path2143-9"
       style="display:inline;fill:#8776da;fill-opacity:1;stroke:none;stroke-width:0.0501464px;stroke-linecap:butt;stroke-linejoin:miter;stroke-opacity:1"
       d="M 15.738044,3.6222269e-7 C 11.927186,-7.3956009e-4 8.1613369,1.2105601 8.235019,3.3589337 l 0.027785,3.8020853 7.679141,-0.018923 0.01066,1.1238603 -11.2657404,-0.00108 c -6.3559541,0.0356 -6.0667375,15.5017617 -0.2266012,15.3337347 l 2.7527876,-0.0032 9.466e-4,-3.819145 C 7.452705,17.09715 8.6611766,15.41697 11.423558,15.337594 l 8.008379,-0.0078 c 2.381229,-0.245519 4.034251,-1.267322 4.068962,-4.014248 l 0.01017,-7.4019095 C 23.404744,1.2135373 19.548898,7.4180233e-4 15.738044,3.6222269e-7 Z M 11.502555,2.4713557 a 1.3725,1.3753095 0 0 1 1.372529,1.3753391 1.3725,1.3753095 0 0 1 -1.372529,1.3753393 1.3725,1.3753095 0 0 1 -1.37253,-1.3753393 1.3725,1.3753095 0 0 1 1.37253,-1.3753391 z" />
    <path
       id="path6840-8"
       style="display:inline;mix-blend-mode:normal;fill:#e8bdff;fill-opacity:1;stroke:none;stroke-width:0.0501464px;stroke-linecap:butt;stroke-linejoin:miter;stroke-opacity:1"
       inkscape:transform-center-x="0.3741764"
       inkscape:transform-center-y="0.74834883"
       d="m 27.425576,8.1501418 c -0.04495,-5.692e-4 -0.09027,-1.897e-4 -0.135902,0.00114 l -2.752787,0.00334 -9.47e-4,3.8191452 c -0.238707,2.67912 -1.447179,4.359298 -4.20956,4.438675 l -8.008477,0.0078 c -2.3812287,0.24552 -4.0342519,1.267322 -4.068961,4.014252 l -0.010167,7.401909 c 0.2125355,5.400046 15.423453,4.85128 15.276091,0.554528 l -0.02779,-3.801988 -7.679138,0.01882 -0.01066,-1.123761 11.265834,0.0011 C 33.369413,23.449848 33.134006,8.2240354 27.425618,8.1502537 Z M 20.219112,26.543689 a 1.3725,1.3753095 0 0 1 1.372531,1.37534 1.3725,1.3753095 0 0 1 -1.372531,1.375339 1.3725,1.3753095 0 0 1 -1.37253,-1.375339 1.3725,1.3753095 0 0 1 1.37253,-1.37534 z" />
  </g>
</svg>
