<?xml version="1.0" encoding="UTF-8" standalone="no"?>
<svg
   height="120"
   width="120"
   viewBox="-15.6996 -26.1665 13.60632 23.54985"
   version="1.1"
   id="svg422"
   sodipodi:docname="Rust_(programming_language)-Logo.wine.svg"
   inkscape:version="1.2 (dc2aeda, 2022-05-15)"
   xmlns:inkscape="http://www.inkscape.org/namespaces/inkscape"
   xmlns:sodipodi="http://sodipodi.sourceforge.net/DTD/sodipodi-0.dtd"
   xmlns="http://www.w3.org/2000/svg"
   xmlns:svg="http://www.w3.org/2000/svg">
  <defs
     id="defs426" />
  <sodipodi:namedview
     id="namedview424"
     pagecolor="#ffffff"
     bordercolor="#999999"
     borderopacity="1"
     inkscape:showpageshadow="0"
     inkscape:pageopacity="0"
     inkscape:pagecheckerboard="0"
     inkscape:deskcolor="#d1d1d1"
     showgrid="false"
     inkscape:zoom="7.0833311"
     inkscape:cx="57.600018"
     inkscape:cy="60.000019"
     inkscape:window-width="1920"
     inkscape:window-height="1052"
     inkscape:window-x="0"
     inkscape:window-y="0"
     inkscape:window-maximized="1"
     inkscape:current-layer="svg422" />
  <path
     d="m 2.7170969,-14.680376 -0.988631,-0.612006 a 13.412657,13.413042 0 0 0 -0.02812,-0.288002 l 0.849583,-0.792457 c 0.0864,-0.08055 0.125097,-0.199802 0.101698,-0.315228 a 0.33884324,0.33885297 0 0 0 -0.214425,-0.252452 l -1.086053,-0.406129 a 12.634848,12.635211 0 0 0 -0.08505,-0.280352 l 0.677461,-0.940958 a 0.34019321,0.34020298 0 0 0 -0.221394,-0.53483 l -1.14522696,-0.186302 a 9.6507324,9.6510095 0 0 0 -0.137697,-0.257177 l 0.481265,-1.056384 a 0.33884324,0.33885297 0 0 0 -0.02655,-0.330303 0.33839325,0.33840296 0 0 0 -0.294744,-0.150976 l -1.162327,0.0405 a 9.1847667,9.1850304 0 0 0 -0.183596,-0.222752 l 0.267069,-1.13221 a 0.34019321,0.34020298 0 0 0 -0.409266,-0.409503 l -1.13195304,0.266852 a 9.76863,9.7689105 0 0 0 -0.223195,-0.183602 l 0.04072,-1.16236 a 0.33974322,0.33975297 0 0 0 -0.481036,-0.321528 l -1.056129,0.481505 a 12.255955,12.256307 0 0 0 -0.257169,-0.137927 l -0.186747,-1.145485 a 0.34041821,0.34042798 0 0 0 -0.534589,-0.221402 l -0.941606,0.677481 a 10.330444,10.33074 0 0 0 -0.279895,-0.08483 l -0.406117,-1.086309 a 0.33951822,0.33952797 0 0 0 -0.567438,-0.113176 l -0.792434,0.850282 c -0.09562,-0.01057 -0.191922,-0.02025 -0.287995,-0.02812 l -0.611987,-0.988884 a 0.34019321,0.34020298 0 0 0 -0.578464,0 l -0.611988,0.988884 c -0.0963,0.0079 -0.192596,0.01755 -0.2882189,0.02812 l -0.792659,-0.850282 a 0.33974322,0.33975297 0 0 0 -0.567439,0.113176 l -0.406117,1.086309 c -0.09405,0.027 -0.187196,0.05558 -0.280119,0.08483 l -0.941381,-0.677481 a 0.3408682,0.34087798 0 0 0 -0.534815,0.221402 l -0.186746,1.145485 c -0.0864,0.04478 -0.171897,0.0909 -0.25717,0.137926 l -1.056129,-0.481504 a 0.33906823,0.33907797 0 0 0 -0.330068,0.02678 c -0.0981,0.06525 -0.155472,0.177077 -0.150972,0.294753 l 0.0405,1.16236 c -0.07515,0.06008 -0.149622,0.121501 -0.223196,0.183602 l -1.131952,-0.266853 a 0.34131819,0.34132799 0 0 0 -0.318819,0.09068 0.33974322,0.33975297 0 0 0 -0.09067,0.318828 l 0.26662,1.13221 a 10.941532,10.941846 0 0 0 -0.183146,0.222752 l -1.162327,-0.0405 a 0.33996821,0.33997798 0 0 0 -0.321519,0.481279 l 0.481491,1.056384 a 10.354293,10.354591 0 0 0 -0.137922,0.257177 l -1.145228,0.186302 a 0.34041821,0.34042798 0 0 0 -0.221395,0.534829 l 0.677461,0.940959 c -0.02947,0.09293 -0.05805,0.186301 -0.08505,0.280352 l -1.086279,0.406129 a 0.33974322,0.33975297 0 0 0 -0.112722,0.56768 l 0.849808,0.792457 c -0.01057,0.09563 -0.02002,0.191926 -0.02812,0.288002 l -0.988631,0.612006 a 0.33974322,0.33975297 0 0 0 0,0.57848 l 0.988631,0.612005 c 0.0081,0.0963 0.01755,0.192377 0.02812,0.288003 l -0.849808,0.792682 a 0.34019321,0.34020298 0 0 0 0.112722,0.567455 l 1.086279,0.406128 c 0.027,0.09405 0.05557,0.187427 0.08505,0.280353 l -0.677462,0.941183 a 0.33996821,0.33997798 0 0 0 0.221621,0.5346038 l 1.145002,0.186302 c 0.04477,0.08685 0.09067,0.172352 0.137922,0.257627 l -0.48149,1.055935 a 0.33974322,0.33975297 0 0 0 0.02677,0.330302 c 0.0657,0.09833 0.177521,0.155702 0.294744,0.150977 l 1.161877,-0.04073 c 0.06052,0.0756 0.121497,0.149627 0.183596,0.223202 l -0.266619,1.132435 c -0.027,0.114751 0.007,0.234677 0.09067,0.318153 0.08302,0.08393 0.203846,0.117451 0.318818,0.09045 l 1.131953,-0.266627 c 0.07357,0.06255 0.148047,0.123301 0.223195,0.183151 l -0.0405,1.162585 a 0.33974322,0.33975297 0 0 0 0.481041,0.321303 l 1.056128,-0.481279 c 0.08505,0.04725 0.170547,0.09315 0.25717,0.137926 l 0.186747,1.14481 a 0.3408682,0.34087798 0 0 0 0.534814,0.221852 l 0.940931,-0.677931 a 10.619788,10.620093 0 0 0 0.280345,0.08528 l 0.406116,1.085859 c 0.04117,0.110251 0.136573,0.191927 0.252445,0.214427 a 0.33816825,0.33817796 0 0 0 0.314994,-0.101701 l 0.792659,-0.849832 c 0.09562,0.01103 0.1919209,0.02025 0.2882189,0.0288 l 0.611988,0.988659 a 0.34041821,0.34042798 0 0 0 0.578464,0 l 0.611987,-0.988659 a 11.03828,11.038597 0 0 0 0.287995,-0.0288 l 0.792434,0.849832 c 0.08032,0.0864 0.199571,0.125101 0.314994,0.101701 a 0.33929323,0.33930297 0 0 0 0.252444,-0.214427 l 0.406117,-1.085859 a 10.619788,10.620093 0 0 0 0.280345,-0.08528 l 0.941156,0.677931 a 0.34041821,0.34042798 0 0 0 0.534589,-0.221852 l 0.186747,-1.14481 c 0.0864,-0.04478 0.171896,-0.09135 0.257169,-0.137926 l 1.056129,0.481279 a 0.33974322,0.33975297 0 0 0 0.481041,-0.321303 l -0.0405,-1.162585 c 0.07515,-0.06008 0.149622,-0.120601 0.22297,-0.183151 l 1.13195304,0.266627 a 0.33839325,0.33840296 0 0 0 0.318593,-0.09045 c 0.0837,-0.08348 0.117673,-0.203402 0.09067,-0.318153 l -0.266619,-1.132435 c 0.0621,-0.07358 0.123297,-0.147601 0.183146,-0.223202 l 1.162327,0.04073 a 0.33861824,0.33862796 0 0 0 0.294744,-0.150977 c 0.0657,-0.0981 0.07582,-0.222976 0.02655,-0.330302 l -0.481265,-1.055935 c 0.04702,-0.08527 0.09315,-0.170776 0.137697,-0.257627 L 1.7219369,-9.6794789 a 0.33996821,0.33997798 0 0 0 0.221396,-0.5346041 l -0.677461,-0.941183 c 0.02925,-0.09293 0.05782,-0.186302 0.08505,-0.280353 l 1.086053,-0.406128 c 0.110473,-0.0414 0.191921,-0.136577 0.214421,-0.252453 a 0.33816825,0.33817796 0 0 0 -0.101698,-0.315002 l -0.849581,-0.792682 c 0.01035,-0.09563 0.0198,-0.191927 0.02812,-0.288003 l 0.988631,-0.612005 a 0.33974322,0.33975297 0 0 0 2.25e-4,-0.57848 z m -6.616893,8.2015461 a 0.70063602,0.70065613 0 0 1 -0.536615,-0.832282 0.69838606,0.69840611 0 0 1 0.830009,-0.53753 0.70018603,0.70020613 0 0 1 0.537064,0.831608 0.70018603,0.70020613 0 0 1 -0.830458,0.538204 z m -0.335919,-2.272069 a 0.63741228,0.63743058 0 0 0 -0.75711,0.490504 l -0.350993,1.638014 a 8.5732289,8.5734751 0 0 1 -3.552679,0.764782 8.5815537,8.5818001 0 0 1 -3.6271519,-0.799207 l -0.350768,-1.638014 a 0.63718728,0.63720558 0 0 0 -0.756885,-0.49028 l -1.446046,0.310503 a 8.5797538,8.5800001 0 0 1 -0.74766,-0.881333 h 7.0360589 c 0.07965,0 0.132748,-0.0144 0.132748,-0.08685 v -2.4889721 c 0,-0.07245 -0.0531,-0.08685 -0.132748,-0.08685 h -2.0578089 v -1.577714 h 2.2256559 c 0.203171,0 1.086278,0.05805 1.368648,1.186886 0.08842,0.347178 0.282594,1.476462 0.415341,1.838041 0.132298,0.405453 0.670937,1.2154601 1.2449,1.2154601 h 3.506105 c 0.03983,0 0.08235,-0.0045 0.127123,-0.0126 a 8.6393776,8.6396256 0 0 1 -0.797384,0.935558 z m -9.7315049,2.237869 a 0.69906105,0.69908112 0 0 1 -0.830459,-0.53753 0.70086101,0.70088114 0 0 1 0.536839,-0.832282 0.70063602,0.70065613 0 0 1 0.29362,1.369812 z m -2.669122,-10.8237191 a 0.70063602,0.70065613 0 0 1 -0.355718,0.924083 0.69883605,0.69885612 0 0 1 -0.922707,-0.356403 0.70063602,0.70065613 0 0 1 0.355718,-0.924084 0.69883605,0.69885612 0 0 1 0.922707,0.356404 z m -0.820334,1.944691 1.506345,-0.66938 a 0.63853726,0.63855559 0 0 0 0.324219,-0.842408 l -0.310269,-0.701556 h 1.22015 v 5.499948 h -2.461675 a 8.619128,8.6193755 0 0 1 -0.328044,-2.36162 c 0,-0.312528 0.01687,-0.621456 0.04927,-0.924984 z m 6.610368,-0.534154 v -1.621139 h 2.9055919 c 0.150072,0 1.059729,0.173476 1.059729,0.853657 0,0.564755 -0.697711,0.767257 -1.27145,0.767257 h -2.6938709 z m 10.55948994,1.459138 c 0,0.215101 -0.0079,0.427953 -0.02363,0.63923 H -1.1937801 c -0.08842,0 -0.123973,0.05805 -0.123973,0.144676 v 0.405679 c 0,0.954908 -0.538414,1.162585 -1.01023,1.215461 -0.449316,0.05063 -0.947456,-0.188102 -1.00888,-0.463054 -0.265044,-1.490864 -0.706711,-1.809241 -1.404197,-2.359371 0.865558,-0.54968 1.766215,-1.360587 1.766215,-2.445996 0,-1.172036 -0.803459,-1.910267 -1.351098,-2.272295 -0.768355,-0.50648 -1.619063,-0.607956 -1.848558,-0.607956 h -9.1354929 c 1.238826,-1.382637 2.917742,-2.36207 4.816704,-2.718473 l 1.0768289,1.129735 a 0.63673729,0.63675557 0 0 0 0.901332,0.0207 l 1.204851,-1.152461 c 2.524674,0.47003 4.662132,2.041668 5.893982,4.197862 l -0.824833,1.863017 a 0.63921224,0.6392306 0 0 0 0.324443,0.842407 l 1.58801804,0.705381 c 0.02745,0.281928 0.04185,0.56678 0.04185,0.855458 z m -9.12919304,-9.423083 a 0.69861106,0.69863112 0 0 1 0.98863,0.02272 0.70086101,0.70088114 0 0 1 -0.02318,0.990234 0.69816107,0.69818111 0 0 1 -0.98863,-0.02295 0.70108601,0.70110614 0 0 1 0.02318,-0.990009 z m 8.185336,6.587383 a 0.69861106,0.69863112 0 0 1 0.92248204,-0.356178 0.70063602,0.70065613 0 0 1 0.355718,0.924083 0.69861106,0.69863112 0 0 1 -0.922707,0.356403 0.701311,0.70133114 0 0 1 -0.35549304,-0.924308 z"
     id="path420"
     style="stroke-width:0.224999;fill:#8776da;fill-opacity:1" />
</svg>
