<?xml version="1.0" encoding="UTF-8" standalone="no"?>
<svg
   width="120"
   height="120"
   viewBox="0 0 120 120"
   fill="none"
   version="1.1"
   id="svg4"
   sodipodi:docname="sass.svg"
   inkscape:version="1.1.2 (b8e25be833, 2022-02-05)"
   xmlns:inkscape="http://www.inkscape.org/namespaces/inkscape"
   xmlns:sodipodi="http://sodipodi.sourceforge.net/DTD/sodipodi-0.dtd"
   xmlns="http://www.w3.org/2000/svg"
   xmlns:svg="http://www.w3.org/2000/svg">
  <defs
     id="defs8" />
  <sodipodi:namedview
     id="namedview6"
     pagecolor="#ffffff"
     bordercolor="#666666"
     borderopacity="1.0"
     inkscape:pageshadow="2"
     inkscape:pageopacity="0.0"
     inkscape:pagecheckerboard="0"
     showgrid="false"
     width="120px"
     inkscape:zoom="7.0666667"
     inkscape:cx="60"
     inkscape:cy="60"
     inkscape:window-width="1920"
     inkscape:window-height="1057"
     inkscape:window-x="-8"
     inkscape:window-y="-8"
     inkscape:window-maximized="1"
     inkscape:current-layer="svg4" />
  <path
     id="path831"
     style="fill:#8776da;fill-opacity:1;stroke-width:0.999998"
     d="M 81.36012,0.00449268 C 74.809159,0.08706158 67.721491,1.2997089 60.727327,3.7865239 47.795889,8.7601536 33.37754,16.22578 22.932917,25.675677 10.498843,37.115026 9.0041605,47.057105 9.5015235,51.036009 12.485702,65.459536 32.377628,75.417161 40.832806,82.38024 c -2.486815,0.994726 -20.397068,9.939488 -24.375972,19.38938 -4.476267,9.94727 0.507708,16.91035 3.989269,17.40771 10.444622,2.98418 21.378836,-2.48941 26.84983,-10.94458 5.470993,-8.45517 4.97363,-18.892021 2.486815,-24.363014 3.481541,-0.994726 6.968261,-1.499854 11.941891,-0.505121 13.926165,1.492089 16.912935,10.454988 15.918209,13.936529 -0.994726,3.481536 -3.486726,5.468406 -4.481446,6.463126 -0.994732,0.49736 -1.494682,0.99732 -0.997319,0.99732 0,0.49736 0.494777,0.49219 1.489496,0.49219 0.994726,0 7.460445,-2.98418 7.460445,-9.947261 0.497363,-8.455171 -7.957808,-17.899889 -22.381335,-17.899889 -5.968356,0 -9.94726,0.49477 -12.434075,1.489499 0,-0.497363 -0.49219,-0.505135 -0.49219,-0.505135 -8.952542,-9.449897 -25.36552,-16.405208 -24.86815,-29.336646 0,-4.476267 1.99463,-16.915523 31.836411,-31.836413 C 77.145472,4.78386 97.03481,8.267991 100.51635,15.728436 105.48998,26.17306 90.069138,46.07017 64.703625,49.054348 c -9.94726,0.994726 -14.923483,-2.484225 -15.918209,-3.976314 -1.492089,-1.492089 -1.484317,-1.50245 -1.98168,-1.50245 -0.994726,0.497363 -0.497363,1.492089 0,2.486815 0.994726,1.989452 3.971132,5.470993 9.442125,7.460445 4.476267,1.492089 15.915616,2.491995 29.84178,-2.978997 C 101.5059,44.57549 113.45297,28.165102 109.97143,14.238938 V 14.73112 C 107.57788,5.1568631 95.77223,-0.17716152 81.36012,0.00449268 Z M 44.316934,86.848735 c 0.994726,4.476267 0.994726,8.46035 0,11.941891 l -0.505121,1.489504 c 0,0.49736 -0.492191,0.99731 -0.492191,0.99731 -0.994726,1.98946 -1.992046,3.47637 -3.484135,5.46582 -4.476267,4.97363 -10.939393,6.97085 -13.923571,5.47876 -2.984178,-1.49209 -1.494682,-8.95771 3.976311,-14.428706 5.968356,-5.968356 13.923572,-9.94726 13.923572,-9.94726 z" />
</svg>
